<svg width="1113" height="1080" viewBox="0 0 1113 1080" fill="none" xmlns="http://www.w3.org/2000/svg">
<g clip-path="url(#clip0)">
<path fill-rule="evenodd" clip-rule="evenodd" d="M516.032 0.412313C514.674 0.584899 512.841 0.924502 511.959 1.16946C511.079 1.41164 510.094 1.51185 509.774 1.38937C509.454 1.2641 509.193 1.30864 509.193 1.48401C509.193 1.65938 508.149 1.92104 506.875 2.06579C505.603 2.20776 504.106 2.51117 503.553 2.73665C502.996 2.96212 502.114 3.13471 501.591 3.12079C501.071 3.10965 500.856 3.18481 501.118 3.29337C501.382 3.39915 501.519 3.61349 501.421 3.76937C501.327 3.92526 503.7 3.49379 506.7 2.8118C512.504 1.49236 517.056 0.760267 519.457 0.760267C520.264 0.760267 521.032 0.590466 521.16 0.381693C521.433 -0.0609041 519.655 -0.0497695 516.032 0.412313ZM526.005 1.77351C525.74 1.87929 525.624 2.12146 525.74 2.31353C525.86 2.5056 525.509 2.66149 524.961 2.66149C524.394 2.66149 524.068 2.49725 524.202 2.28013C524.494 1.8097 524.193 1.80413 522.707 2.25508C521.263 2.69489 514.655 3.56338 513.394 3.47988C512.885 3.44647 512.357 3.59957 512.22 3.81948C512.084 4.03939 510.195 4.46807 508.019 4.77148C505.843 5.0749 503.806 5.4312 503.492 5.56482C502.526 5.97123 499.563 6.51682 498.397 6.50012C497.787 6.49177 497.086 6.76178 496.839 7.10138C496.521 7.53841 496.31 7.5913 496.118 7.27953C495.968 7.04014 495.472 6.82859 495.013 6.81188C494.395 6.78683 494.596 6.58919 495.798 6.03525C496.686 5.62884 497.412 5.15841 497.412 4.99417C497.412 4.82994 497.949 4.77148 498.605 4.86891C499.396 4.98582 499.716 4.9051 499.549 4.63787C499.41 4.41239 499.599 4.0533 499.969 3.83618C501.14 3.15419 499.668 3.34069 497.22 4.18413C496.004 4.60168 494.29 4.98582 493.411 5.03871C492.395 5.09717 491.872 5.29202 491.978 5.57038C492.206 6.17165 491.354 6.63651 490.884 6.16608C490.636 5.91834 490.049 5.9072 489.212 6.13824C488.307 6.38877 487.667 6.35537 487.064 6.0269C486.563 5.75689 484.929 5.57873 483.163 5.60379L480.121 5.64554L481.643 5.08881C482.478 4.78262 483.505 4.6156 483.925 4.72138C484.345 4.82437 484.943 4.74921 485.255 4.55157C486.159 3.98093 483.174 4.10898 480.121 4.77426C476.64 5.53141 476.053 5.63997 472.903 6.11598C470.316 6.50568 459.283 9.99636 458.407 10.7034C457.811 11.1822 450.399 13.6847 449.578 13.6847C449.213 13.6847 448.587 13.938 448.181 14.2442C447.271 14.9317 446.737 14.9846 447.096 14.35C447.31 13.9714 447.263 13.9714 446.854 14.35C446.57 14.6116 446.086 14.826 445.774 14.826C444.714 14.826 438.893 16.8357 438.893 17.2032C438.893 17.4036 438.648 17.4732 438.348 17.3591C438.047 17.2449 437.744 17.3284 437.671 17.5456C437.449 18.2109 434.001 18.4391 433.759 17.8044C433.617 17.4314 433.133 17.3117 432.223 17.4175C431.494 17.5038 430.356 17.3479 429.694 17.0751C429.032 16.7996 428.052 16.6103 427.515 16.6492C426.981 16.691 425.312 16.4906 423.809 16.2039C421.639 15.7891 421.04 15.7807 420.896 16.1593C420.779 16.4572 420.317 16.5546 419.638 16.421L418.564 16.2066L419.513 15.9338C420.036 15.7835 419.276 15.7223 417.818 15.7947C416.366 15.8698 414.972 15.7613 414.724 15.5553C413.956 14.915 406.015 15.3354 406.062 16.0118C406.096 16.4739 405.406 16.5685 402.139 16.5546C399.048 16.5407 398.074 16.6632 397.729 17.1058C397.475 17.4314 396.596 17.7015 395.681 17.7349C394.785 17.7655 393.808 18.0578 393.469 18.4001C393.057 18.8121 392.164 19.0098 390.703 19.0153C388.112 19.0265 386.337 20.0425 387.166 21.039C387.431 21.3619 387.937 21.5317 388.288 21.4204C388.833 21.245 388.841 21.2756 388.354 21.6264C387.442 22.2833 386.151 22.1441 386.212 21.3981C386.24 21.039 385.945 20.6827 385.555 20.602C385.155 20.5185 384.946 20.6187 385.074 20.8303C385.433 21.4065 383.296 21.5735 380.466 21.1893C378.724 20.9527 377.283 20.9778 375.958 21.2701C374.887 21.5067 373.86 21.6737 373.677 21.6403C372.892 21.4955 372.628 21.7099 373.154 22.0606C373.905 22.5645 373.304 23.0238 369.094 25.1699C366.392 26.5478 365.847 26.7093 365.538 26.2277C365.287 25.838 365.084 25.7907 364.89 26.0774C364.734 26.3084 364.197 26.7121 363.699 26.9737C363.009 27.3384 362.914 27.5277 363.298 27.7671C363.663 27.9925 363.512 28.154 362.758 28.3433C362.054 28.5186 361.779 28.7859 361.921 29.1533C362.076 29.5625 361.932 29.6377 361.347 29.4539C360.824 29.2869 360.068 29.5347 359.077 30.1888C358.259 30.7289 357.48 31.1714 357.343 31.1714C357.207 31.1714 356.556 31.7282 355.897 32.4074C354.436 33.9161 350.882 36.8751 350.535 36.8751C349.831 36.8751 347.694 38.1639 347.694 38.587C347.694 39.2245 346.834 39.5363 345.81 39.269C344.889 39.0296 341.889 40.5161 339.583 42.3589C338.779 43.0019 337.496 43.7117 336.733 43.9372C335.968 44.1627 335.378 44.5245 335.423 44.7389C335.712 46.2114 330.743 48.9867 327.348 49.2539C324.095 49.5072 322.996 49.8552 322.996 50.6235C322.996 51.002 325.592 50.6457 326.224 50.1809C326.825 49.7383 328.695 49.4905 328.901 49.8246C329.151 50.2282 327.56 51.3194 326.722 51.3194C326.319 51.3194 326.138 51.5226 326.257 51.8399C326.499 52.4662 324.454 54.2672 323.121 54.6013C322.596 54.7321 321.716 55.2582 321.165 55.7704C320.614 56.2798 320.108 56.5331 320.041 56.3299C319.969 56.1128 319.46 56.1879 318.814 56.5081C318.144 56.8449 317.793 57.2652 317.915 57.5853C318.038 57.9082 317.668 58.3453 316.958 58.7099C316.229 59.0885 315.879 59.5116 316.009 59.8512C316.14 60.1964 315.681 60.7392 314.763 61.3265C313.961 61.8415 312.278 63.2528 311.026 64.4637C309.771 65.6746 309.045 66.4429 309.409 66.1701C309.88 65.8193 310.074 65.8026 310.074 66.1116C310.074 66.3538 309.818 66.6488 309.507 66.7685C309.192 66.8882 308.936 67.225 308.936 67.5173C308.936 67.8096 308.747 68.0462 308.513 68.0462C308.282 68.0462 308.199 67.7734 308.327 67.4422C308.474 67.0553 308.132 67.1944 307.386 67.8207C306.744 68.3636 305.892 68.8062 305.494 68.8062C305.038 68.8062 304.682 69.1597 304.532 69.7582C304.401 70.2815 304.136 70.7074 303.944 70.7074C303.752 70.7074 303.427 71.1528 303.221 71.6983C302.918 72.4917 302.737 72.603 302.314 72.2523C301.649 71.6983 301.084 72.4193 301.649 73.1013C302.069 73.6079 301.816 75.5425 301.29 75.8682C301.106 75.9824 300.956 75.8933 300.956 75.6734C300.956 74.7214 300.28 75.3894 299.876 76.7395C299.32 78.5934 299.326 78.8022 299.91 78.4514C300.233 78.2566 300.219 78.3707 299.865 78.8077C298.627 80.3332 298.135 77.647 299.256 75.498C299.57 74.8912 299.751 74.3205 299.657 74.2259C299.403 73.9698 300.978 71.0887 301.373 71.0887C301.563 71.0887 301.716 70.7463 301.716 70.3288C301.716 69.8083 301.969 69.5661 302.517 69.5661C303.051 69.5661 303.249 69.3879 303.11 69.0288C302.971 68.667 303.394 68.294 304.401 67.8903C305.8 67.3308 306.065 66.9857 305.931 65.8917C305.823 65.0009 307.3 62.9132 307.957 63.0329C308.486 63.1275 308.536 63.0162 308.218 62.4261C307.77 61.5854 310.286 58.8769 312.189 58.1532C314.507 57.2736 316.875 55.4141 317.122 54.2839C317.256 53.6715 317.651 53.048 317.996 52.8977C319.251 52.3549 321.09 51.1217 321.093 50.8239C321.096 50.4815 321.104 50.4759 318.324 52.3104C316.922 53.2373 316.346 53.8636 316.346 54.4649C316.346 55.0411 316.085 55.3501 315.531 55.428C315.083 55.492 314.415 55.8762 314.045 56.2826C313.347 57.0592 311.975 57.2958 311.975 56.6417C311.975 55.8623 310.976 56.3021 310.353 57.3571C309.807 58.2785 306.769 61.6745 303.63 64.8673L302.831 65.6774L304.173 65.9279C305.981 66.2675 305.878 66.9077 304.014 66.9077C302.985 66.9077 302.392 67.1165 302.125 67.5702C301.796 68.1381 301.738 68.0824 301.727 67.1805C301.716 66.0197 300.786 65.4046 300.093 66.0949C299.774 66.415 299.829 66.5264 300.311 66.5264C300.745 66.5264 300.956 66.8353 300.956 67.4756C300.956 68.3747 300.631 68.5974 299.531 68.4554C299.27 68.422 299.033 68.5723 299.008 68.7895C298.98 69.0094 298.939 69.3434 298.914 69.5355C298.816 70.2481 298.296 70.429 298.296 69.747C298.296 69.0734 298.271 69.0762 297.737 69.7804C297.01 70.7436 297.002 71.8487 297.726 71.8487C298.391 71.8487 298.463 72.2885 297.893 72.8591C297.67 73.0818 297.456 73.8974 297.417 74.6713C297.353 75.9156 297.247 76.0603 296.476 75.9155C296 75.8237 295.7 75.8404 295.808 75.949C295.92 76.0603 295.82 76.3804 295.586 76.6616C295.274 77.0346 295.274 77.171 295.589 77.171C295.822 77.171 295.678 77.5078 295.263 77.9225C294.851 78.3345 294.284 78.5851 294.003 78.4765C293.708 78.3651 293.31 78.6797 293.059 79.2253C292.692 80.0353 292.734 80.2051 293.343 80.3972C294.022 80.6143 294.017 80.6644 293.232 81.4689C292.303 82.4181 291.863 82.137 292.127 80.7563C292.23 80.2246 292.124 79.8321 291.88 79.8321C291.646 79.8321 291.457 80.2079 291.457 80.6672C291.457 81.3241 291.356 81.4049 290.995 81.043C290.644 80.6923 290.636 80.3109 290.961 79.4452C291.198 78.8217 291.245 78.3095 291.067 78.3095C290.892 78.3095 290.658 78.6101 290.552 78.9748C290.199 80.1773 289.779 82.677 289.873 83.0138C289.926 83.1975 289.693 83.6513 289.359 84.0215C288.989 84.4307 288.908 84.748 289.153 84.8287C289.804 85.0459 289.859 88.0299 289.211 87.8907C288.56 87.7488 288.04 88.492 288.065 89.5247C288.081 90.2206 288.112 90.2123 288.426 89.4301C288.916 88.2136 289.437 88.3723 289.665 89.8114C289.821 90.7913 289.62 91.3508 288.688 92.5366C288.042 93.3578 287.717 93.9034 287.965 93.7503C288.243 93.5777 288.415 93.7141 288.415 94.1038C288.415 94.5046 288.209 94.6605 287.859 94.5241C287.55 94.4072 287.194 94.4824 287.063 94.6939C286.927 94.9138 286.501 94.7051 286.061 94.2012L285.293 93.3272L285.433 95.131C285.508 96.1247 285.455 96.9375 285.316 96.9375C285.174 96.9375 284.787 97.0405 284.456 97.1686C284.03 97.3328 283.855 97.1741 283.855 96.6202C283.855 96.1915 283.677 95.7322 283.46 95.5986C283.195 95.4344 283.112 96.3196 283.207 98.2932C283.323 100.72 283.212 101.483 282.569 102.658C281.748 104.158 280.327 105.383 280.474 104.462C280.519 104.192 280.352 103.543 280.104 103.02C279.673 102.107 279.662 102.118 279.848 103.312C279.982 104.181 279.842 104.754 279.383 105.213C279.022 105.575 278.78 106.257 278.846 106.728C278.997 107.785 278.318 107.866 278.045 106.822C277.811 105.926 277.015 105.795 277.015 106.655C277.015 106.981 276.862 107.151 276.676 107.037C276.222 106.758 276.49 103.014 276.999 102.505C277.552 101.951 277.497 101.024 276.924 101.213C276.339 101.408 275.118 105.909 275.532 106.33C275.916 106.719 275.502 109.862 275.065 109.862C274.884 109.862 274.737 109.709 274.737 109.52C274.737 109.33 274.394 109.263 273.977 109.372C272.947 109.642 273.011 110.241 274.072 110.254C274.831 110.266 274.856 110.321 274.308 110.739C273.824 111.106 273.732 111.649 273.888 113.255C274.072 115.179 274.035 115.29 273.301 115.098C272.591 114.911 272.538 115.02 272.736 116.239C272.892 117.202 272.831 117.509 272.516 117.314C272.274 117.163 272.057 116.582 272.035 116.019C272.004 115.307 271.887 115.515 271.642 116.707C271.45 117.648 271.361 118.806 271.445 119.285C271.548 119.872 271.292 120.39 270.657 120.888C269.494 121.804 269.375 123.967 270.424 125.147C270.933 125.72 270.994 125.988 270.652 126.107C270.39 126.199 270.176 126.686 270.176 127.193C270.176 128.877 268.993 128.095 268.74 126.241C268.671 125.734 268.356 124.88 268.039 124.34C267.716 123.786 267.583 123.688 267.736 124.12C267.88 124.537 268.123 126.077 268.273 127.541C268.423 129.002 268.571 129.815 268.601 129.345C268.635 128.835 268.904 128.49 269.272 128.49C269.7 128.49 269.825 128.721 269.684 129.258C269.575 129.679 269.711 130.252 269.992 130.533C271.139 131.68 272.235 135.691 271.411 135.725C270.287 135.772 269.728 136.83 270.262 137.899C270.574 138.525 270.691 139.304 270.532 139.728C270.07 140.977 269.341 138.5 269.55 136.39C269.647 135.393 269.572 134.48 269.383 134.361C269.191 134.244 269.035 134.33 269.035 134.55C269.035 134.773 268.854 134.954 268.632 134.954C268.404 134.954 268.326 134.631 268.456 134.224C268.643 133.634 268.54 133.534 267.911 133.698C267.485 133.81 267.135 133.748 267.135 133.565C267.135 133.381 266.464 132.412 265.641 131.418C264.283 129.773 264.18 129.503 264.539 128.473C264.953 127.285 264.717 126.015 264.149 126.366C263.968 126.48 263.896 126.984 263.993 127.485C264.244 128.799 263.412 129.13 263.106 127.841C262.711 126.191 262.441 125.943 262.16 126.973C261.909 127.903 261.898 127.897 261.628 126.708C261.475 126.043 261.102 125.403 260.796 125.286C260.482 125.164 260.29 124.699 260.351 124.214C260.412 123.744 260.312 123.118 260.131 122.825C259.664 122.074 259.483 120.818 259.271 116.896C259.171 115.014 258.951 113.33 258.784 113.155C258.618 112.98 258.556 114.049 258.648 115.532C258.762 117.358 258.682 118.227 258.395 118.227C258.161 118.227 258.067 118.38 258.183 118.569C258.298 118.756 258.484 119.635 258.595 120.523C258.707 121.411 258.89 122.283 258.999 122.463C259.302 122.953 258.615 122.853 258.092 122.333C257.738 121.976 257.635 122.01 257.635 122.475C257.635 122.806 257.883 123.279 258.183 123.53C258.484 123.78 258.651 124.195 258.551 124.451C258.453 124.71 258.645 125.576 258.982 126.377C259.316 127.182 259.5 128.201 259.388 128.643C259.28 129.086 259.349 129.701 259.547 130.013C259.831 130.464 259.906 130.397 259.911 129.695C259.92 128.362 260.846 128.905 260.985 130.324C261.049 130.99 260.933 131.533 260.721 131.533C260.512 131.533 260.432 131.917 260.543 132.387C260.813 133.537 260.985 134.622 261.024 135.427C261.069 136.348 262.53 136.287 262.875 135.349C263.39 133.957 265.913 137.954 265.507 139.513C265.379 140.003 265.471 140.254 265.755 140.19C266.005 140.131 266.203 140.226 266.197 140.396C266.192 140.568 266.486 140.877 266.851 141.08C267.215 141.286 267.516 141.637 267.516 141.86C267.516 142.121 267.31 142.099 266.946 141.796C266.475 141.403 266.375 141.445 266.364 142.035C266.353 142.634 266.2 142.572 265.393 141.654C264.853 141.041 264.528 140.309 264.65 139.989C264.951 139.204 264.127 138.255 263.554 138.731C263.239 138.993 263.089 138.756 263.025 137.899C262.919 136.51 262.78 136.301 262.21 136.654C261.959 136.81 261.881 137.467 262.018 138.308C262.221 139.572 262.19 139.638 261.692 139.026C260.985 138.152 260.604 140.507 261.136 142.467C261.322 143.149 261.369 143.875 261.244 144.081C261.116 144.287 261.191 144.457 261.414 144.457C261.634 144.457 261.817 145.055 261.817 145.787C261.817 146.745 261.984 147.118 262.416 147.118C262.928 147.118 262.978 146.756 262.752 144.646C262.583 143.062 262.624 142.174 262.872 142.174C263.434 142.174 263.748 143.243 263.49 144.276C263.353 144.816 263.506 145.523 263.871 146.041C264.708 147.238 264.653 148.012 263.743 147.775C262.85 147.541 262.802 150.467 263.673 152.023C264.132 152.838 264.116 152.908 263.54 152.688C263.184 152.552 262.822 152.44 262.736 152.44C262.647 152.44 262.577 152.031 262.577 151.533C262.577 150.868 262.324 150.578 261.625 150.445C260.51 150.233 260.448 150.417 261.314 151.374C261.762 151.87 261.831 152.195 261.548 152.479C261.264 152.766 260.838 152.482 260.106 151.522C258.887 149.924 258.492 149.815 258.492 151.079C258.492 151.7 258.659 151.934 259.01 151.8C259.296 151.689 259.65 151.917 259.8 152.304C259.948 152.694 260.632 153.749 261.322 154.653C262.53 156.237 263.061 158.108 262.146 157.54C261.906 157.392 262.104 157.802 262.583 158.45C263.061 159.096 263.684 159.714 263.968 159.825C264.255 159.934 264.653 160.454 264.853 160.983C265.053 161.512 265.41 161.944 265.646 161.944C265.883 161.944 265.98 161.688 265.858 161.373C265.738 161.058 265.805 160.802 266.008 160.802C266.211 160.802 266.375 161.056 266.375 161.365C266.375 161.674 266.845 162.228 267.421 162.595C267.995 162.963 268.665 163.519 268.907 163.834C269.391 164.46 269.194 165.128 268.629 164.777C268.434 164.658 268.276 164.741 268.276 164.961C268.276 165.184 268.676 165.365 269.166 165.365C269.659 165.365 270.385 165.729 270.783 166.175C271.503 166.982 271.501 166.985 270.574 166.695L269.645 166.406L270.329 167.452C270.883 168.296 270.919 168.563 270.513 168.811C269.959 169.153 268.93 168.507 269.236 168.009C269.5 167.583 268.646 167.085 267.613 167.06L266.762 167.041L267.694 168.012C268.206 168.549 268.927 169.924 269.291 171.071C269.659 172.218 270.154 173.359 270.396 173.607C270.635 173.855 270.95 174.938 271.092 176.015C271.32 177.738 271.423 177.913 271.949 177.479C272.458 177.056 272.524 177.089 272.402 177.716C272.324 178.117 271.837 178.548 271.317 178.671L270.371 178.893L271.414 179.801C272.878 181.076 272.755 181.705 271.03 181.735C269.7 181.758 269.667 181.783 270.552 182.136C271.069 182.342 271.795 182.434 272.166 182.337C272.533 182.242 272.92 182.3 273.023 182.467C273.126 182.634 272.806 182.871 272.307 182.996C271.812 183.122 271.322 183.542 271.222 183.929C271.078 184.477 270.774 184.597 269.864 184.463C269.049 184.344 268.376 184.536 267.672 185.092C266.57 185.958 266.982 186.103 268.943 185.538C269.887 185.268 270.176 185.301 270.176 185.685C270.176 185.961 270.605 186.465 271.125 186.807C271.648 187.149 272.077 187.3 272.077 187.136C272.077 186.974 272.761 186.796 273.596 186.738C275.176 186.629 275.858 187.556 274.45 187.901C274.085 187.99 274.347 188.06 275.034 188.06C275.722 188.057 276.373 187.912 276.481 187.734C276.876 187.094 277.6 187.442 278.251 188.586C278.938 189.794 279.152 191.595 278.61 191.595C278.44 191.595 277.97 191.857 277.564 192.174C276.879 192.711 276.932 192.736 278.345 192.519L279.865 192.285L278.727 193.262C277.597 194.231 277.594 194.242 278.44 194.482C279.45 194.768 279.517 195.119 278.696 195.801C278.223 196.193 277.939 196.205 277.369 195.848C276.256 195.152 275.58 195.331 276.528 196.071C276.99 196.43 277.38 197.068 277.391 197.488C277.402 197.905 277.419 198.674 277.427 199.197L277.444 200.149L278.368 199.008C279.392 197.744 279.578 198.248 278.771 200.091C277.9 202.073 277.488 203.506 277.447 204.709C277.422 205.338 277.255 206.192 277.071 206.61C276.448 208.046 275.925 210.034 275.825 211.362C275.772 212.094 275.594 212.873 275.435 213.096C275.274 213.318 275.276 214 275.441 214.616C275.713 215.632 275.783 215.509 276.222 213.263C276.487 211.904 276.988 210.454 277.335 210.039C277.928 209.329 277.928 209.316 277.302 209.8C276.309 210.568 276.401 209.413 277.405 208.503C277.989 207.974 278.059 207.734 277.692 207.509C277.316 207.278 277.347 207.103 277.825 206.721C278.165 206.451 278.546 205.663 278.674 204.973C278.966 203.395 279.723 202.618 280.978 202.618C281.991 202.618 282.316 202.056 281.481 201.747C281.134 201.616 281.184 201.385 281.668 200.876C282.196 200.319 282.425 200.277 282.806 200.656C283.184 201.034 283.165 201.201 282.714 201.488C282.336 201.727 282.305 201.85 282.622 201.853C283.565 201.864 283.212 205.842 282.158 207.1C281.214 208.219 281.25 209.065 282.205 208.272C282.809 207.771 282.97 210.563 282.375 211.192C281.824 211.776 281.445 214.783 281.924 214.783C282.605 214.783 282.388 215.871 281.62 216.28C280.705 216.77 279.5 219.701 280.004 220.208C280.243 220.445 280.196 221.16 279.879 222.22C279.606 223.125 279.47 223.955 279.575 224.06C279.943 224.428 280.655 223.326 281.019 221.82C281.74 218.844 282.617 219.665 282.416 223.131C282.291 225.252 282.369 226.187 282.667 226.187C282.903 226.187 283.101 226.658 283.109 227.234C283.115 227.81 283.371 228.612 283.677 229.018C283.986 229.422 284.242 230.106 284.25 230.538C284.256 230.969 284.523 231.749 284.843 232.269C285.41 233.199 285.419 233.202 285.241 232.345C285.09 231.626 285.151 231.548 285.588 231.91C286.259 232.464 286.173 234.162 285.485 233.898C285.215 233.795 284.996 233.845 284.996 234.009C284.996 234.741 285.986 237.052 286.418 237.327C286.682 237.494 286.902 237.92 286.907 238.276C286.924 239.089 287.837 240.328 288.173 239.991C288.541 239.624 287.992 242.279 287.617 242.694C287.433 242.897 287.13 242.655 286.896 242.123L286.495 241.205L286.729 242.154C286.857 242.677 286.957 243.407 286.952 243.78C286.946 244.15 287.102 244.353 287.3 244.231C287.494 244.111 287.656 243.763 287.656 243.462C287.656 242.588 288.682 242.83 288.958 243.771C289.189 244.559 289.247 244.52 289.681 243.295C290.032 242.31 290.04 241.895 289.72 241.692C289.208 241.369 289.053 234.552 289.556 234.552C290.132 234.552 290.346 235.223 290.555 237.681C290.747 239.952 290.92 241.631 291.025 242.249C291.053 242.407 291.376 242.549 291.74 242.563C292.108 242.58 292.211 242.675 291.971 242.772C291.732 242.872 291.604 243.242 291.688 243.599C291.774 243.955 291.501 244.673 291.087 245.197C290.672 245.717 290.33 245.931 290.324 245.67C290.305 244.512 289.62 245.344 289.495 246.683C289.347 248.225 289.681 248.328 290.622 247.025C290.895 246.647 291.276 246.335 291.468 246.335C291.924 246.335 291.048 248.334 290.419 248.732C289.846 249.091 289.776 250.374 290.31 250.705C290.536 250.845 290.586 250.672 290.435 250.282C290.246 249.787 290.332 249.684 290.794 249.859C291.131 249.99 291.479 249.89 291.568 249.642C291.66 249.391 291.846 249.294 291.988 249.425C292.378 249.784 291.49 254.772 290.864 255.733C290.224 256.715 290.16 257.122 290.7 256.788C290.908 256.657 291.223 256.932 291.395 257.4C291.735 258.313 291.977 258.107 292.339 256.601C292.464 256.078 292.934 255.424 293.382 255.145C294.019 254.753 294.131 254.75 293.894 255.129C293.443 255.863 293.313 257.74 293.716 257.74C294.362 257.74 293.652 260.559 292.336 263.215C290.947 266.024 290.87 267.961 292.23 265.896C292.904 264.874 292.97 264.846 292.973 265.606C292.976 266.065 292.803 266.544 292.595 266.675C292.386 266.803 292.216 267.148 292.216 267.441C292.216 267.78 292.561 267.624 293.176 267.009C293.705 266.48 294.345 266.116 294.601 266.202C295.383 266.458 295.333 267.816 294.512 268.56C293.602 269.384 293.513 269.904 294.284 269.904C295.191 269.904 295.266 270.483 294.548 271.892C293.989 272.988 293.953 273.35 294.342 273.882C294.768 274.466 294.832 274.422 294.943 273.459C295.027 272.727 295.308 272.348 295.825 272.27C296.521 272.167 296.529 272.192 295.92 272.571C295.555 272.799 295.255 273.386 295.255 273.876C295.255 274.366 295.018 274.856 294.732 274.968C294.025 275.238 293.733 277.807 294.378 278.055C294.737 278.191 294.771 278.497 294.501 279.204C294.3 279.736 294.234 280.668 294.356 281.281C294.501 281.999 294.362 282.703 293.966 283.266C293.315 284.198 293.118 286.063 293.71 285.698C293.905 285.579 294.183 285.676 294.334 285.916C294.481 286.155 294.323 286.508 293.978 286.701C292.973 287.263 293.237 288.39 294.495 288.914C295.828 289.465 295.928 289.868 294.876 290.433C294.231 290.779 294.117 290.723 294.117 290.066C294.117 289.64 293.944 289.292 293.735 289.292C293.527 289.292 293.354 289.71 293.354 290.222C293.354 290.731 293.204 291.241 293.02 291.355C292.133 291.903 292.322 292.969 293.274 292.786C294.311 292.588 294.337 292.479 292.739 295.049C291.924 296.357 291.919 296.424 292.617 296.24C293.154 296.101 293.357 296.243 293.363 296.755C293.365 297.315 293.438 297.353 293.702 296.936C293.889 296.644 294.292 296.502 294.601 296.621C294.91 296.738 295.352 296.646 295.583 296.415C295.814 296.184 296.12 296.115 296.265 296.26C296.409 296.401 296.012 296.989 295.383 297.562C288.73 303.633 286.799 318.874 290.58 335.481C291.103 337.78 291.682 340.433 291.863 341.374C292.044 342.315 292.367 343.681 292.581 344.414C292.792 345.146 294.081 350.362 295.447 356.007C301.443 380.823 306.841 394.577 314.849 405.428C315.311 406.054 317.359 409.648 319.398 413.411C323.152 420.34 324.001 421.737 327.626 426.965C336.72 440.079 348.509 445.092 357.85 439.814C360.454 438.347 361.247 438.367 361.915 439.926C363.763 444.243 364.392 445.855 364.631 446.865C364.778 447.491 365.115 448.432 365.382 448.956C366.303 450.762 366.993 452.577 367.836 455.416C368.301 456.986 368.905 458.782 369.177 459.408C369.45 460.037 369.787 461.234 369.926 462.069C370.154 463.425 370.421 464.202 371.634 467.013C371.812 467.431 372.163 468.714 372.408 469.864C372.653 471.013 373.009 472.252 373.195 472.614C373.382 472.976 373.535 473.535 373.535 473.855C373.535 474.173 373.693 474.732 373.888 475.094C374.08 475.459 374.703 477.552 375.271 479.748C376.259 483.573 377.831 489.374 379.08 493.811C379.403 494.964 380.246 497.786 380.956 500.085C381.662 502.385 382.494 505.249 382.806 506.449C383.496 509.116 386.657 518.457 387.662 520.804C388.065 521.745 388.544 522.856 388.722 523.273C388.903 523.691 389.587 525.403 390.249 527.076C393.535 535.407 399.103 545.731 404.882 554.213C407.211 557.629 412.827 565.114 414.062 566.45C414.994 567.455 415.372 568.429 416.313 572.218C416.611 573.42 417.106 575.388 417.412 576.591C417.721 577.791 418.311 580.229 418.725 582.008C420.05 587.692 420.673 590.139 421.241 591.89C421.547 592.83 421.797 593.977 421.794 594.439C421.794 594.899 421.989 595.706 422.229 596.229C422.585 597.014 422.535 597.368 421.948 598.242C421.558 598.826 421.046 599.645 420.812 600.062C416.831 607.225 413.241 612.906 407.003 621.922C397.05 636.311 391.298 645.255 387.987 651.482C386.562 654.165 386.916 653.931 374.879 660.122C368.749 663.273 362.241 667.237 357.502 670.708C346.155 679.015 345.379 679.429 332.304 684.148C317.367 689.537 303.828 695.274 286.707 703.463C271.236 710.865 252.31 719.619 251.781 719.619C251.645 719.619 243.442 723.23 238.689 725.379C236.121 726.542 221.357 733.933 218.686 735.391C210.998 739.595 197.945 746.874 196.718 747.642C195.093 748.661 195.174 748.614 186.768 753.457C177.413 758.843 174.274 760.58 168.718 763.448C158.706 768.611 151.522 772.539 147.323 775.144C143.233 777.683 138.564 780.141 134.14 782.087C132.988 782.593 130.767 783.576 129.198 784.269C119.142 788.723 100.981 798.404 95.1902 802.399C91.8456 804.704 86.3752 808.172 83.0334 810.107C72.8133 816.014 71.3664 817.33 72.5796 819.602C73.1194 820.607 72.9691 820.799 69.4103 823.646C63.1191 828.682 62.5431 829.486 61.7056 834.358C61.3939 836.17 60.6482 840.05 60.0472 842.979C59.449 845.904 58.5892 851.55 58.1412 855.522C57.6904 859.494 56.8278 865.654 56.224 869.209C55.6175 872.764 54.8606 877.958 54.5406 880.755C54.0175 885.326 53.8283 886.055 52.668 887.979C49.1092 893.886 36.7354 929.285 32.2695 946.343C31.0035 951.173 28.527 959.772 26.7601 965.456C23.4406 976.148 19.9875 989.927 16.7348 1005.45C15.6997 1010.39 13.2956 1021.1 11.3924 1029.25C9.48638 1037.4 6.22529 1051.86 4.1412 1061.37C2.05711 1070.89 0.262394 1078.97 0.151094 1079.33C-0.0408986 1079.97 26.6266 1080 556.476 1080C862.565 1080 1113 1079.93 1113 1079.85C1113 1079.57 1104.66 1044.37 1102.59 1035.9C1101.44 1031.2 1098.95 1020.39 1097.07 1011.88C1095.18 1003.38 1092.87 993.626 1091.93 990.216C1089.59 981.673 1079.01 936.255 1077.83 929.683C1073.04 902.913 1066.95 878.094 1056.9 844.309C1050.7 823.471 1049.4 820.139 1041.75 805.533C1039.72 801.664 1037.38 796.96 1036.55 795.078C1035.73 793.196 1034.47 791.058 1033.77 790.326C1032.77 789.291 1032.57 788.854 1032.86 788.347C1033.54 787.134 1027.23 776.753 1023.9 773.602C1023.12 772.87 1021.36 770.66 1019.98 768.689C1018.6 766.721 1016.51 764.068 1015.33 762.796C1014.14 761.527 1012.23 759.033 1011.08 757.254C1003.81 746.058 993.12 737.254 979.054 730.882C972.173 727.764 962.813 723.75 956.633 721.267C953.291 719.923 949.785 718.497 948.845 718.102C947.904 717.707 943.202 715.845 938.393 713.963C919.5 706.572 916.662 705.453 914.645 704.596C913.496 704.109 911.359 703.254 909.895 702.698C907.421 701.757 898.684 698.216 889.755 694.53C887.666 693.668 885.014 692.607 883.865 692.173C880.576 690.934 871.254 687.042 869.994 686.386C869.368 686.06 868.697 685.79 868.505 685.79C868.313 685.787 867.885 685.542 867.554 685.241C867.223 684.944 865.587 684.167 863.914 683.518C862.242 682.87 860.62 682.207 860.305 682.043C859.643 681.701 848.277 678.032 842.445 676.281C837.481 674.792 818.824 668.676 805.966 664.325C800.637 662.522 795.42 660.804 794.377 660.512C793.331 660.219 790.426 659.37 787.916 658.624C785.409 657.881 782.159 657.007 780.698 656.681C772.988 654.967 771.032 654.541 769.298 654.19C768.252 653.979 766.457 653.491 765.308 653.104C764.159 652.72 761.88 652.041 760.247 651.593C758.611 651.145 756.357 650.36 755.235 649.845C754.114 649.333 753.104 648.912 752.993 648.912C752.589 648.912 748.285 646.905 741.938 643.757C735.688 640.656 730.037 638.29 725.134 636.72C722.778 635.966 721.114 634.298 717.827 629.396C717.524 628.945 716.486 627.548 715.521 626.293C713.206 623.283 711.085 620.255 710.248 618.76C709.878 618.095 709.013 616.525 708.328 615.269C707.009 612.848 706.934 612.728 703.264 607.038C696.836 597.07 685.189 584.474 675.82 577.359C675.609 577.2 674.501 576.343 673.358 575.452C670.65 573.345 660.775 566.547 657.278 564.379C656.693 564.017 656.05 563.288 655.85 562.756C655.299 561.311 655.085 550.55 655.58 549.358C655.808 548.81 656.009 548.273 656.028 548.164C656.045 548.056 656.429 547.569 656.882 547.081C657.336 546.594 657.815 545.765 657.948 545.236C658.079 544.707 658.599 543.669 659.103 542.928C659.604 542.188 659.926 541.442 659.821 541.266C659.712 541.094 659.793 540.952 660.002 540.952C660.207 540.952 660.483 540.565 660.614 540.095C661.051 538.5 662.459 535.63 662.801 535.63C662.987 535.63 663.04 535.31 662.915 534.923C662.79 534.522 662.932 534.015 663.246 533.756C663.552 533.503 663.919 532.757 664.064 532.097C664.209 531.44 664.451 530.639 664.601 530.318C664.754 529.998 665.452 528.54 666.156 527.076C666.86 525.611 667.453 524.242 667.478 524.033C667.601 522.97 668.154 521.183 668.36 521.183C668.491 521.183 668.636 520.645 668.683 519.991C668.727 519.34 669.042 518.382 669.379 517.87C669.715 517.355 669.896 516.84 669.779 516.726C669.662 516.609 669.81 516.069 670.105 515.523C670.403 514.978 670.748 513.881 670.878 513.085C671.006 512.289 671.371 511.54 671.688 511.418C672.078 511.267 672.192 510.905 672.041 510.31C671.83 509.463 672.957 504.623 673.602 503.607C673.769 503.342 673.936 502.699 673.97 502.176C674.003 501.653 674.123 500.884 674.231 500.464C674.34 500.046 674.443 499.248 674.459 498.685C674.476 498.126 674.746 497.41 675.06 497.096C675.453 496.706 675.503 496.439 675.222 496.266C674.977 496.116 674.913 495.595 675.063 495.005C675.205 494.454 675.403 493.146 675.506 492.102C675.609 491.055 675.842 489.619 676.026 488.906C676.21 488.194 676.265 487.459 676.151 487.275C676.037 487.089 676.14 486.699 676.379 486.412C676.646 486.089 676.716 485.36 676.56 484.528C676.39 483.631 676.449 483.169 676.727 483.169C676.958 483.169 677.15 482.91 677.15 482.599C677.15 482.284 676.958 482.028 676.722 482.028C676.416 482.028 676.41 481.889 676.702 481.535C676.928 481.265 677.181 480.452 677.267 479.731C677.353 479.008 677.601 477.981 677.818 477.449C678.035 476.917 678.174 475.461 678.132 474.217C678.079 472.703 678.235 471.737 678.6 471.297C679.078 470.726 679.073 470.529 678.558 469.738C678.007 468.898 678.021 468.778 678.792 467.998C679.576 467.205 679.582 467.141 678.931 466.771C678.305 466.415 678.294 466.298 678.814 465.507C679.315 464.742 679.554 463.016 680.024 456.747C680.086 455.912 680.172 455.227 680.211 455.227C680.3 455.227 680.52 453.866 680.737 451.995C680.82 451.263 680.915 450.665 680.945 450.665C680.973 450.665 681.071 449.49 681.157 448.054C681.243 446.615 681.496 445.22 681.719 444.95C681.958 444.663 682.075 443.202 682.006 441.418C681.939 439.745 682.014 438.456 682.175 438.556C682.337 438.653 682.495 437.999 682.529 437.097C682.562 436.196 682.651 435.032 682.732 434.509C682.81 433.985 682.974 432.705 683.094 431.658C683.213 430.612 683.444 429.587 683.608 429.378C683.772 429.167 683.784 428.193 683.631 427.21C683.377 425.576 683.408 423.082 683.767 416.262C683.836 414.903 683.917 412.844 683.942 411.683L683.989 409.576L686.363 409.097C694.841 407.382 699.452 403.268 704.533 392.882C706.336 389.197 706.745 388.144 709.051 381.288C710.437 377.174 711.492 374.488 712.894 371.498C713.506 370.193 714.007 369.043 714.007 368.949C714.007 368.851 715.092 366.499 716.417 363.721C719.708 356.82 719.873 356.428 720.974 352.968C722.914 346.872 723.843 342.17 725.223 331.489C725.574 328.783 725.721 327.11 726.144 321.218C726.74 312.864 729.024 301.234 730.198 300.577C730.594 300.354 730.652 300.115 730.39 299.797C730.132 299.489 730.257 298.431 730.774 296.502C731.656 293.231 731.762 288.129 731.069 282.545C730.724 279.755 730.733 278.909 731.114 278.45C731.515 277.968 731.495 277.91 730.994 278.102C730.532 278.28 730.335 277.996 730.14 276.874C729.773 274.756 726.439 268.081 724.809 266.199C723.312 264.47 723.493 264.248 725.657 265.152C726.406 265.467 727.299 265.715 727.639 265.704C727.981 265.692 727.402 265.344 726.359 264.933C723.401 263.763 721.436 262.708 720.354 261.703C719.809 261.197 719.224 260.777 719.06 260.774C718.534 260.76 716.834 259.279 717.332 259.271C717.594 259.265 717.808 259.003 717.808 258.692C717.808 258.046 717.213 257.926 716.859 258.5C716.442 259.173 715.373 258.881 714.024 257.726C712.855 256.726 712.8 256.601 713.526 256.601C713.974 256.601 714.449 256.429 714.577 256.22C714.708 256.011 714.455 255.841 714.018 255.841C713.019 255.841 712.727 255.117 713.214 253.837C713.748 252.437 714.989 251.824 715.755 252.59C716.425 253.261 717.048 253.361 717.048 252.799C717.048 252.59 716.895 252.417 716.712 252.417C715.423 252.417 715.151 250.48 716.367 249.951L717.619 249.408L715.668 249.392C713.395 249.375 712.735 248.807 712.619 246.764C712.577 246.007 712.424 244.918 712.282 244.345C711.94 242.981 712.952 242.541 714.452 243.401C715.83 244.194 715.852 243.602 714.483 242.574C713.676 241.968 713.554 241.711 713.946 241.455C714.338 241.194 714.232 240.946 713.47 240.347C712.457 239.551 712.12 238.616 712.964 238.939C713.292 239.067 713.439 238.68 713.439 237.692C713.439 236.456 713.548 236.272 714.258 236.347C714.706 236.392 715.173 236.178 715.29 235.869C715.465 235.415 715.176 235.326 713.81 235.404C712.875 235.457 712.112 235.629 712.109 235.788C712.109 235.944 711.937 236.072 711.728 236.072C711.52 236.072 711.347 235.816 711.347 235.501C711.347 235.189 711.539 234.931 711.773 234.931C712.043 234.931 712.107 234.552 711.945 233.887C711.806 233.31 711.645 232.414 711.586 231.891C711.528 231.367 711.303 230.599 711.085 230.179C710.868 229.761 710.768 229.205 710.86 228.943C710.963 228.659 710.818 228.55 710.498 228.673C710.173 228.798 709.789 228.495 709.516 227.896C708.862 226.457 708.96 226.335 709.986 227.298C710.86 228.119 710.921 228.127 711.272 227.459C711.745 226.56 711.745 224.667 711.269 224.667C711.066 224.667 711.016 225.163 711.158 225.809C711.478 227.259 710.571 227.387 709.828 225.998C709.55 225.475 709.177 225.049 709.004 225.049C708.832 225.049 708.687 224.868 708.687 224.645C708.687 224.425 708.887 224.367 709.132 224.517C709.435 224.706 709.497 224.581 709.321 224.13C709.182 223.763 709.068 223.384 709.068 223.284C709.068 223.184 708.91 223.2 708.715 223.32C708.52 223.442 708.236 223.339 708.086 223.095C707.913 222.816 707.975 222.752 708.253 222.922C708.896 223.32 709.199 222.198 708.698 221.263C708.297 220.517 708.342 220.481 709.332 220.726C710.301 220.968 710.351 220.934 709.867 220.347C709.575 219.994 709.282 218.638 709.216 217.338L709.096 214.975L709.95 216.019C710.42 216.595 711.013 217.065 711.266 217.065C711.898 217.065 711.845 216.748 711.091 215.993C710.493 215.395 710.498 215.348 711.186 215.236C712.833 214.972 712.972 214.799 712.098 214.092C710.843 213.076 711.364 211.64 712.9 211.882C713.509 211.977 714.007 211.902 714.007 211.709C714.007 211.517 713.651 211.362 713.211 211.362C712.382 211.362 710.209 210.298 709.758 209.669C709.291 209.018 709.778 208.809 711.539 208.904C713.042 208.987 713.208 208.923 712.799 208.428C712.415 207.965 712.452 207.768 713 207.367C713.425 207.055 713.526 206.782 713.27 206.624C712.674 206.256 712.783 205.652 713.4 205.889C713.693 206 714.01 206.387 714.104 206.746C714.283 207.434 715.713 207.581 716.642 207.008C717.046 206.757 717.021 206.627 716.52 206.345C716.175 206.151 715.991 205.833 716.113 205.636C716.414 205.151 718.843 205.185 719.149 205.677C719.285 205.897 719.756 206.025 720.195 205.964C720.774 205.881 721.069 206.114 721.264 206.802C721.481 207.573 721.539 207.609 721.573 206.991C721.595 206.574 721.873 205.73 722.193 205.118C722.714 204.116 722.714 203.943 722.19 203.42C721.667 202.896 721.609 202.905 721.609 203.512C721.609 203.882 721.447 204.085 721.255 203.965C721.061 203.846 720.794 203.921 720.663 204.132C720.167 204.931 715.148 204.608 715.148 203.776C715.148 202.81 717.491 202.287 718.476 203.033C719.024 203.448 719.063 203.448 718.693 203.03C718.1 202.359 719.43 199.74 720.507 199.459C721.116 199.297 721.186 199.361 720.844 199.773C720.54 200.138 720.524 200.778 720.78 201.931C720.983 202.832 721.164 203.208 721.186 202.766C721.239 201.758 722.622 199.957 723.345 199.957C724.147 199.957 724.005 199.158 723.164 198.938C722.355 198.727 721.937 197.293 722.43 196.411C722.878 195.615 725.109 194.935 726.876 195.063C727.867 195.136 728.56 194.958 728.994 194.523C729.731 193.788 732.711 193.638 734.336 194.253C734.998 194.507 735.251 194.507 735.096 194.253C734.968 194.047 734.617 193.875 734.317 193.875C734.013 193.875 733.768 193.633 733.768 193.338C733.768 193.04 733.576 192.736 733.345 192.658C732.705 192.444 737.792 190.075 738.891 190.075C739.959 190.075 739.94 190.15 739.486 187.795C739.116 185.883 739.292 185.273 740.037 185.891C740.385 186.181 740.616 186.186 740.786 185.911C740.922 185.691 740.808 185.504 740.535 185.493C740.263 185.482 740.68 185.207 741.462 184.881C743.07 184.216 743.446 183.417 741.871 184.018C740.032 184.717 739.614 183.781 740.424 180.786C741.328 177.443 740.956 177.27 739.737 180.469C738.922 182.612 738.716 182.899 738.499 182.189C738.357 181.721 738.09 181.432 737.903 181.549C737.72 181.663 737.566 181.49 737.566 181.162C737.566 180.836 737.349 180.572 737.08 180.572C736.47 180.572 735.477 177.268 735.622 175.717C735.652 175.397 735.986 175.313 736.618 175.472C737.344 175.656 737.566 175.564 737.566 175.082C737.566 174.737 737.355 174.49 737.094 174.531C736.072 174.696 735.399 174.075 735.577 173.139C735.677 172.627 735.813 172.207 735.883 172.207C736.181 172.207 737.948 174.036 737.948 174.345C737.948 174.531 738.449 174.904 739.063 175.177C739.676 175.447 740.341 176.132 740.538 176.694C740.841 177.557 740.942 177.616 741.17 177.064C741.512 176.24 739.884 173.432 739.464 174.114C739.25 174.462 739.111 174.451 738.877 174.075C738.702 173.791 738.755 173.524 739.002 173.44C739.297 173.34 739.319 173.006 739.069 172.346C738.493 170.829 738.629 170.645 739.943 171.174C741.576 171.837 743.688 171.505 742.756 170.734C742.411 170.448 742.127 169.774 742.127 169.234V168.257L743.451 169.54C744.18 170.247 744.695 170.904 744.598 171.004C744.389 171.21 745.583 172.176 746.07 172.196C746.251 172.201 745.268 171.007 743.883 169.54C742.5 168.07 741.367 166.715 741.367 166.523C741.367 166.333 741.025 166.066 740.608 165.935C739.289 165.515 738.073 161.944 739.247 161.944C739.578 161.944 739.848 161.688 739.848 161.373C739.848 161.058 739.676 160.802 739.467 160.802C739.258 160.802 739.089 160.109 739.089 159.26C739.089 157.384 739.626 157.573 740.638 159.803C741.031 160.666 741.353 161.072 741.359 160.708C741.376 159.419 742.667 160.594 744.019 163.132C744.425 163.889 745.029 164.616 745.36 164.744C746.078 165.017 746.025 164.917 743.771 161.66C742.867 160.354 742.127 159.207 742.127 159.113C742.127 159.018 741.701 158.481 741.178 157.916C739.595 156.207 739.848 154.578 741.651 154.857C742.987 155.06 743.015 155.046 742.11 154.612C739.69 153.456 738.688 151.299 740.569 151.299C740.983 151.299 741.423 150.959 741.557 150.539C741.69 150.122 742.213 149.676 742.722 149.548C743.844 149.267 743.849 149.203 742.878 148.162C742.455 147.708 742.007 146.684 741.879 145.888C741.623 144.284 741.142 143.769 740.499 144.412C739.957 144.958 738.707 144.964 738.707 144.424C738.707 143.705 740.377 142.564 740.697 143.065C740.855 143.316 740.978 143.057 740.981 142.461C740.989 141.303 740.446 141.061 740.065 142.049C739.887 142.514 739.709 142.57 739.4 142.261C739.091 141.952 739.097 141.548 739.428 140.749C739.968 139.446 740.221 136.092 739.779 136.092C739.609 136.092 739.467 136.379 739.467 136.727C739.467 137.075 739.367 137.258 739.242 137.136C738.855 136.746 739.498 135.307 739.94 135.58C740.213 135.747 740.268 135.605 740.101 135.171C739.959 134.803 739.971 134.305 740.126 134.063C740.282 133.821 740.41 133.025 740.413 132.292C740.419 130.53 742.188 130.514 744.654 132.251C745.842 133.089 746.306 133.258 746.306 132.855C746.306 132.529 745.185 131.769 743.652 131.057C740.352 129.523 740.057 128.003 742.528 125.258C743.666 123.994 743.849 122.55 742.906 122.302C742.216 122.121 742.138 121.893 742.327 120.635C742.781 117.625 742.731 115.223 742.222 115.644C741.877 115.933 741.749 115.872 741.749 115.421C741.749 114.377 741.045 114.742 740.917 115.85C740.853 116.426 740.627 116.841 740.419 116.776C740.21 116.71 740.087 116.412 740.149 116.111C740.346 115.145 739.289 115.529 738.006 116.891C737.319 117.62 736.874 118.408 737.018 118.642C737.199 118.931 737.024 118.987 736.476 118.811C735.886 118.625 735.669 118.717 735.669 119.151C735.669 119.811 735.079 119.953 734.726 119.382C734.603 119.179 734.823 118.692 735.218 118.296C735.613 117.898 736.05 117.124 736.189 116.57C736.328 116.017 736.609 115.566 736.815 115.566C737.305 115.566 737.297 114.157 736.804 113.854C736.595 113.723 736.309 113.926 736.17 114.305C735.385 116.456 732.822 118.012 733.084 116.181C733.156 115.674 733.432 115.413 733.83 115.479C734.28 115.554 734.408 115.379 734.275 114.87C734.172 114.48 734.361 113.887 734.692 113.556C735.062 113.186 735.146 112.863 734.909 112.715C734.701 112.587 734.528 112.671 734.528 112.904C734.528 113.138 734.367 113.23 734.172 113.11C733.971 112.985 734.161 112.114 734.614 111.092C735.051 110.101 735.541 108.693 735.702 107.964L735.997 106.633L735.057 107.771L734.113 108.913L734.369 107.833C734.6 106.867 734.534 106.761 733.721 106.831C733.226 106.872 732.355 106.886 731.787 106.864L730.758 106.822L731.732 104.882C732.269 103.816 732.739 102.747 732.781 102.508C732.822 102.265 733.076 101.667 733.345 101.174C733.699 100.531 733.721 100.161 733.429 99.8659C733.134 99.5736 732.95 99.7935 732.781 100.643C732.65 101.297 732.347 101.906 732.11 101.998C731.57 102.204 731.634 100.133 732.246 97.5082C732.925 94.6048 733.056 93.1379 732.63 93.1379C732.422 93.1379 732.249 92.9235 732.252 92.6619C732.255 92.1274 734.091 91.1559 734.553 91.4426C734.717 91.5429 734.951 91.3257 735.071 90.9555C735.19 90.5881 735.93 89.9061 736.712 89.4412L738.137 88.5978L736.902 88.8233C735.922 89.0042 735.669 88.9207 735.669 88.4335C735.669 87.6987 734.881 87.6235 734.177 88.2888C733.763 88.6813 733.746 88.6256 734.08 87.9742C734.303 87.5372 734.753 86.961 735.076 86.691C735.402 86.421 735.669 86.0508 735.669 85.867C735.669 85.6833 736.025 85.1767 736.459 84.7425C737.53 83.6708 737.035 83.2866 735.928 84.3277C735.443 84.7814 734.803 85.1516 734.503 85.1489C734.138 85.1433 734.1 85.0486 734.381 84.8621C735.04 84.4279 735.374 82.9581 734.973 82.2427C734.728 81.8057 734.828 80.7925 735.285 79.1C736.181 75.768 736.434 73.9086 736.047 73.5077C735.872 73.3268 735.674 71.3253 735.605 69.0622C735.505 65.7915 735.349 64.8506 734.856 64.4887C734.517 64.241 734.175 63.7149 734.097 63.3224C734.022 62.9271 733.702 62.5541 733.387 62.4901C731.367 62.0781 729.873 61.5993 729.403 61.2096C728.679 60.6056 728.092 61.0231 728.337 61.964C728.448 62.3899 728.348 62.7239 728.112 62.7239C727.878 62.7239 727.689 62.465 727.689 62.1477C727.689 61.7469 727.355 61.5965 726.578 61.6578L725.465 61.7413L726.428 62.6348C726.96 63.1248 727.285 63.6342 727.154 63.765C727.024 63.8958 726.712 63.8012 726.464 63.5534C725.304 62.3927 725.232 62.9772 726.022 67.1916C726.206 68.1715 726.128 68.4276 725.638 68.4276C725.123 68.4276 725.098 68.3051 725.482 67.6871C725.863 67.0775 725.824 66.8159 725.259 66.1923C724.881 65.7748 724.678 65.2626 724.809 65.0538C725.115 64.5583 723.963 63.9181 723.15 64.1297C722.519 64.2939 721.815 63.3001 721.481 61.7747C721.381 61.3043 721.3 61.4796 721.272 62.2284C721.247 62.8937 721.417 63.5562 721.648 63.701C721.948 63.8875 721.937 64.0406 721.609 64.2438C721.253 64.4665 721.258 64.7309 721.639 65.4324C722.574 67.1499 722.814 73.9225 722.037 76.7451C721.525 78.6129 721.495 78.5015 722.652 78.8606C723.342 79.0722 723.506 78.9748 723.506 78.3596C723.506 77.9393 723.679 77.4883 723.888 77.3603C724.096 77.2322 724.269 77.3909 724.269 77.7193C724.269 78.4793 722.922 79.8321 722.165 79.8321C720.796 79.8321 719.708 81.0179 719.708 82.5128C719.708 83.8099 718.968 85.1711 718.935 83.9408C718.927 83.668 718.367 84.0883 717.694 84.8733C716.222 86.5936 713.629 87.2644 713.629 85.9227C713.629 85.4161 713.445 85.2463 713.058 85.3966C712.705 85.533 712.488 85.3938 712.488 85.0347C712.488 84.7174 712.685 84.3917 712.927 84.311C713.225 84.2108 713.147 83.835 712.685 83.1279C712.015 82.1036 711.998 82.1008 711.467 82.8607C710.829 83.771 710.209 83.8684 710.209 83.0639C710.209 82.2511 709.463 82.3569 708.659 83.2866C708.278 83.7236 707.791 83.9714 707.574 83.8378C707.332 83.6902 707.268 83.8294 707.407 84.1941C707.56 84.5893 707.894 84.7146 708.381 84.5615C709.063 84.3444 709.054 84.4056 708.264 85.3131C707.747 85.9088 707.31 86.1398 707.159 85.8977C706.998 85.6388 706.739 85.7056 706.422 86.0869C705.799 86.8413 705.309 86.8274 704.435 86.0396C703.77 85.4356 703.74 85.4523 703.837 86.3236C703.932 87.1865 703.806 87.2505 701.848 87.3618C700.17 87.4537 699.853 87.3841 700.234 87C700.495 86.7383 700.71 86.1426 700.71 85.6805C700.71 85.2157 700.921 84.7592 701.183 84.6645C701.461 84.5643 701.241 84.2971 700.651 84.0187C700.006 83.7153 699.563 83.1335 699.416 82.3931C699.199 81.3019 699.146 81.2713 698.492 81.8642C697.627 82.6464 696.909 82.6742 696.909 81.9226C696.909 81.5635 696.547 81.352 695.932 81.352C694.791 81.352 693.698 80.4139 694.093 79.7737C694.288 79.4619 694.098 79.4034 693.453 79.576C692.949 79.7096 692.326 79.8238 692.064 79.8266C691.803 79.8293 691.588 80.0882 691.588 80.4028C691.588 80.7145 691.263 80.9706 690.865 80.9706C690.32 80.9706 690.192 80.7758 690.345 80.1912C690.526 79.5009 690.425 79.4424 689.454 79.6762C688.133 79.9936 687.815 80.2107 688.675 80.2107C689.023 80.2107 689.31 80.3833 689.31 80.5921C689.31 80.8008 688.967 80.9706 688.547 80.9706C688.13 80.9706 687.788 80.8064 687.788 80.606C687.788 80.1244 686.766 79.6178 685.205 79.3199C684.479 79.1835 684.042 79.2309 684.165 79.4313C684.284 79.6233 684.207 79.885 683.995 80.0186C683.784 80.1495 683.608 79.9824 683.608 79.6456C683.608 79.1613 683.35 79.0861 682.331 79.2754C680.804 79.5621 680.088 78.5572 681.226 77.7221C681.808 77.2962 681.836 77.068 681.441 76.0158L680.982 74.8021L682.106 75.0248C682.723 75.1501 683.23 75.1779 683.23 75.0888C683.23 74.6629 680.637 72.5 679.713 72.1604C679.14 71.9489 678.669 71.6232 678.669 71.4367C678.669 71.0331 676.187 69.9474 675.266 69.9474C674.907 69.9474 673.992 69.232 673.23 68.3552C672.467 67.4811 671.735 66.8743 671.602 67.0079C671.468 67.1415 671.098 66.9912 670.781 66.6739C670.372 66.2647 669.802 66.1645 668.814 66.3315C667.645 66.5291 667.247 66.4011 666.31 65.5326C664.918 64.2438 664.07 62.7295 664.726 62.71C665.411 62.6905 663.377 61.6133 662.628 61.5965C662.269 61.591 661.78 61.218 661.54 60.7698C661.117 59.9765 661.154 59.9598 662.762 60.2131C664.401 60.4692 664.409 60.4664 663.508 59.8262C662.951 59.4309 661.44 59.0801 659.626 58.9187C656.231 58.6208 655.672 58.2952 655.371 56.4385C655.157 55.119 654.367 53.872 652.355 51.6757C651.779 51.0466 651.309 50.2839 651.309 49.9777C651.309 49.6548 650.947 49.4154 650.455 49.407C649.52 49.3931 647.889 48.2156 647.889 47.5531C647.889 47.0242 647.18 47.027 645.636 47.567C644.701 47.8927 644.2 47.8816 643.535 47.5253C643.053 47.2692 642.288 47.1773 641.837 47.3193C641.35 47.4752 640.769 47.3778 640.413 47.0827C640.084 46.8099 639.322 46.6373 638.721 46.7013C637.975 46.7793 637.55 46.615 637.383 46.178C637.249 45.8301 636.779 45.1481 636.339 44.6665C634.213 42.3366 634.06 41.9274 635.393 42.1223C636.167 42.2364 636.47 42.4591 636.334 42.8126C636.225 43.1021 636.328 43.3359 636.567 43.3359C636.804 43.3359 637.352 43.6366 637.783 44.0012C638.284 44.4271 638.415 44.4633 638.148 44.0986C637.917 43.7841 637.614 42.885 637.472 42.1028C637.274 41.0088 637.035 40.6748 636.448 40.6748C634.903 40.6748 633.963 39.8953 634.784 39.2969C635.176 39.0102 635.357 38.7763 635.184 38.7763C635.015 38.7763 635.09 38.5175 635.349 38.2057C635.983 37.443 635.396 37.4764 634.539 38.2502C634.149 38.6037 633.585 38.7624 633.214 38.6204C632.627 38.395 632.633 38.3282 633.295 37.8271C634.052 37.2537 633.743 37.0894 632.024 37.1535C631.762 37.1618 631.548 36.9753 631.545 36.7387C631.539 36.4993 631.372 36.5606 631.169 36.8751C630.949 37.2175 630.799 37.2648 630.796 36.992C630.791 36.7443 630.969 36.4297 631.189 36.2933C631.461 36.1235 631.445 35.8758 631.141 35.5111C630.56 34.8097 630.028 34.8264 630.028 35.5445C630.028 35.8591 629.756 36.1152 629.419 36.1152C629.01 36.1152 628.888 35.9092 629.046 35.4972C629.347 34.7122 628.634 33.8326 627.702 33.8326C627.31 33.8326 626.971 33.621 626.945 33.3594C626.92 33.0977 626.879 32.6273 626.851 32.3127C626.823 31.9982 626.372 31.6864 625.849 31.6168C625.326 31.5445 624.736 31.3329 624.539 31.1408C624.341 30.9488 623.913 30.7957 623.59 30.7984C623.069 30.804 623.067 30.8513 623.57 31.2132C624.043 31.5556 624.024 31.5862 623.442 31.3997C623.061 31.2744 622.585 31.1714 622.39 31.1714C622.193 31.1714 621.867 30.7456 621.67 30.2222C621.461 29.6739 621.008 29.273 620.596 29.273C618.851 29.273 617.324 28.4324 618.075 27.884C618.693 27.4302 618.528 27.3718 616.659 27.3718C615.306 27.3718 614.382 27.1797 614.101 26.8373C613.564 26.1915 614.305 25.7879 615.209 26.2333C615.523 26.3892 616.122 26.3919 616.539 26.2388C617.196 26.0022 617.068 25.8464 615.59 25.1031C614.65 24.6299 613.578 23.9758 613.208 23.6501C612.838 23.3244 611.784 23.0265 610.865 22.9876C609.819 22.9458 608.439 22.4949 607.167 21.7795C606.052 21.1559 603.995 20.2624 602.596 19.8003C601.196 19.3382 599.627 18.6256 599.107 18.2164C598.16 17.4732 589.794 14.7035 585.38 13.6735C584.546 13.4787 582.665 12.8691 581.201 12.3207C579.738 11.7723 577.086 10.915 575.311 10.4167C571.549 9.36447 567.628 8.10349 565.984 7.41315C565.346 7.14592 563.808 6.72281 562.564 6.47228C561.32 6.21897 559.876 5.74297 559.359 5.41172C558.841 5.08325 557.427 4.77148 556.214 4.71859C555.004 4.66849 553.117 4.36785 552.027 4.0533C550.722 3.67751 546.595 3.33234 539.97 3.04563C528.782 2.56128 526.578 2.36086 526.887 1.86259C527.112 1.49515 526.775 1.46174 526.005 1.77351ZM402.698 15.0876C401.588 15.3771 401.955 16.0007 403.079 15.7334C404.39 15.4244 405.122 14.8093 404.103 14.8705C403.697 14.8956 403.066 14.993 402.698 15.0876ZM413.055 15.9338C413.158 15.9589 413.032 16.112 412.774 16.2762C412.231 16.6214 409.632 16.3931 409.632 16.0007C409.632 15.7891 412.206 15.7418 413.055 15.9338ZM445.732 15.9672C445.732 16.176 445.476 16.3458 445.162 16.3458C444.85 16.3458 444.592 16.176 444.592 15.9672C444.592 15.7585 444.85 15.5859 445.162 15.5859C445.476 15.5859 445.732 15.7585 445.732 15.9672ZM417.103 16.8497C417.245 16.9916 416.914 17.1058 416.369 17.1058C415.823 17.1058 415.295 16.9749 415.194 16.8107C414.975 16.4516 416.741 16.4878 417.103 16.8497ZM426.177 17.5122C426.302 17.7098 425.726 17.8685 424.878 17.8685C424.043 17.8685 423.264 17.7154 423.15 17.5316C423.038 17.3479 423.623 17.1865 424.452 17.1753C425.281 17.1642 426.057 17.3145 426.177 17.5122ZM379.615 18.7342C378.674 18.9569 378.159 19.1935 378.474 19.2575C378.788 19.3243 379.985 19.1434 381.134 18.8539C382.283 18.5672 382.798 18.3306 382.275 18.3306C381.752 18.3306 380.555 18.5115 379.615 18.7342ZM390.255 19.7669C389.94 19.9701 389.342 20.126 388.925 20.1149L388.165 20.0954L388.925 19.7669C390.06 19.2798 391.009 19.2798 390.255 19.7669ZM411.914 20.8637C411.914 21.2506 410.336 21.7377 410.041 21.4427C409.796 21.1977 410.804 20.5408 411.438 20.5352C411.7 20.5296 411.914 20.6799 411.914 20.8637ZM402.464 21.4788C402.501 21.9521 399.498 23.0627 399.145 22.7064C399.003 22.5645 399.295 22.1024 399.796 21.682C400.714 20.9054 402.414 20.7774 402.464 21.4788ZM379.993 22.6814C379.993 23.3689 379.603 23.3216 379.05 22.5617C378.582 21.9214 377.519 22.1859 377.923 22.8373C378.254 23.3745 376.946 24.5102 375.9 24.5937C375.396 24.6355 374.575 24.9361 374.08 25.259C373.585 25.5847 372.939 25.8491 372.642 25.8491C372.344 25.8491 371.821 26.2778 371.479 26.8011C371.136 27.3245 370.519 27.7504 370.107 27.7504C369.692 27.7504 369.356 27.909 369.356 28.1039C369.356 28.6272 367.118 29.6488 366.865 29.2396C366.746 29.0475 366.837 28.8917 367.068 28.8917C367.299 28.8917 367.452 28.6773 367.411 28.4157C367.274 27.5666 367.9 26.6119 368.593 26.6119C368.969 26.6119 369.372 26.353 369.492 26.0412C369.611 25.7267 369.929 25.4678 370.199 25.4678C371.039 25.4594 374.734 23.5944 374.539 23.2771C374.436 23.11 374.723 22.9792 375.176 22.9876C375.633 22.9931 376.003 22.84 376.003 22.648C376.003 22.4531 376.509 22.0885 377.127 21.8351C378.388 21.3202 379.993 21.7934 379.993 22.6814ZM369.069 23.4719C368.39 23.8115 367.833 24.2263 367.833 24.3989C367.833 24.8331 368.537 24.7858 369.086 24.3181C369.339 24.101 369.887 23.6779 370.304 23.3773C371.317 22.6535 370.608 22.7064 369.069 23.4719ZM406.499 23.2854C406.416 23.5471 405.929 23.8087 405.425 23.8644C404.532 23.9674 404.526 23.9535 405.241 23.3912C406.135 22.6869 406.713 22.6368 406.499 23.2854ZM385.124 24.7106C384.996 24.9194 384.631 25.0892 384.32 25.0892C384.005 25.0892 383.855 24.9194 383.983 24.7106C384.114 24.5019 384.476 24.3293 384.79 24.3293C385.102 24.3293 385.252 24.5019 385.124 24.7106ZM613.219 25.7712C613.342 26.1331 613.1 26.1971 612.301 26.0078C610.721 25.6348 610.512 25.2813 611.873 25.2813C612.524 25.2813 613.13 25.5012 613.219 25.7712ZM376.32 26.6369C375.73 27.2771 374.784 28.0454 374.222 28.3461C372.736 29.1338 372.441 28.282 373.919 27.4636C374.573 27.099 375.466 26.5005 375.9 26.1359C377.197 25.0447 377.48 25.3815 376.32 26.6369ZM380.769 27.3857C380.046 28.0065 379.119 28.5103 378.71 28.5103C377.817 28.5103 378.045 28.2514 379.91 27.1435C381.913 25.9521 382.314 26.0663 380.769 27.3857ZM397.094 27.9758C397.094 28.3488 395.416 29.6265 394.91 29.6404C394.206 29.6572 394.328 29.2925 395.288 28.4908C396.118 27.7977 397.094 27.5193 397.094 27.9758ZM627.243 29.9049C626.673 30.4755 626.965 31.2856 627.56 30.7929C627.872 30.5312 628.131 30.1693 628.131 29.9856C628.131 29.5931 627.605 29.543 627.243 29.9049ZM365.393 30.367C365.121 30.8068 363.276 31.1547 363.276 30.7678C363.276 30.6036 363.573 30.3892 363.938 30.2946C365.087 29.994 365.607 30.019 365.393 30.367ZM359.414 31.9397C358.523 33.1506 356.904 34.2195 355.977 34.2084C355.707 34.2028 356.281 33.454 357.254 32.541C359.817 30.1332 360.98 29.8103 359.414 31.9397ZM363.729 32.3879C363.487 32.6329 363.162 32.7052 363.006 32.5521C362.853 32.399 362.972 32.1179 363.276 31.9314C363.985 31.4943 364.305 31.8145 363.729 32.3879ZM344.655 40.4855C343.411 41.1981 342.925 41.1981 343.514 40.4855C343.776 40.1737 344.352 39.9232 344.797 39.9288C345.557 39.9427 345.548 39.9733 344.655 40.4855ZM638.557 45.4403C638.963 45.7465 639.467 45.9971 639.675 45.9971C639.884 45.9971 639.723 45.7465 639.316 45.4403C638.91 45.1341 638.409 44.8808 638.201 44.8808C637.989 44.8808 638.151 45.1341 638.557 45.4403ZM309.184 48.9756C308.352 49.8942 308.299 51.247 309.12 50.5622C309.432 50.3061 309.601 49.9554 309.498 49.7884C309.393 49.6186 309.579 49.2094 309.91 48.8809C310.238 48.5497 310.353 48.2797 310.161 48.2797C309.969 48.2797 309.529 48.5914 309.184 48.9756ZM305.603 51.9485C304.718 52.6834 303.995 53.499 303.995 53.7634C303.995 54.0251 304.799 53.5017 305.781 52.6026C307.962 50.5956 307.829 50.0974 305.603 51.9485ZM323.275 52.5108C322.907 52.714 322.398 52.7641 322.136 52.6166C321.878 52.4718 321.964 52.6722 322.331 53.0592C322.955 53.7217 323.035 53.7244 323.636 53.1204C324.41 52.3493 324.198 51.993 323.275 52.5108ZM313.399 54.7711C312.701 55.1775 312.495 55.8818 313.074 55.8818C313.26 55.8818 313.814 55.5449 314.309 55.1357C315.283 54.3229 314.624 54.0585 313.399 54.7711ZM304.529 55.5561C303.808 56.3689 303.811 56.3717 304.66 55.9235C305.13 55.6758 305.517 55.3111 305.517 55.1079C305.517 54.5679 305.333 54.6514 304.529 55.5561ZM301.585 56.1963C300.931 56.9173 300.745 57.7858 301.24 57.7802C301.398 57.7802 301.816 57.2652 302.172 56.6389C302.893 55.3751 302.556 55.1218 301.585 56.1963ZM303.235 57.5937C303.012 58.1755 302.742 58.799 302.631 58.9772C302.52 59.1581 302.592 59.3028 302.787 59.3028C303.232 59.3028 304.181 57.0815 303.867 56.7669C303.741 56.6417 303.455 57.0119 303.235 57.5937ZM319.574 57.7412C319.574 57.9277 319.318 58.181 319.006 58.3007C318.658 58.4343 318.436 58.3007 318.436 57.9611C318.436 57.6549 318.692 57.4016 319.006 57.4016C319.318 57.4016 319.574 57.5547 319.574 57.7412ZM299.89 58.6181C299.64 58.8714 299.437 59.2861 299.437 59.5422C299.437 59.7983 299.2 60.2437 298.914 60.5304C298.627 60.8171 298.115 61.5548 297.773 62.1728C297.431 62.7907 296.857 63.7065 296.499 64.2104C295.856 65.1067 295.859 65.1151 296.657 64.6892C297.637 64.1631 300.575 59.7705 300.575 58.8324C300.575 58.0419 300.494 58.0168 299.89 58.6181ZM310.909 60.4302C310.194 60.8283 309.827 61.2402 310.055 61.3822C310.277 61.5186 310.973 61.2681 311.599 60.8227C313.438 59.5088 313.002 59.2611 310.909 60.4302ZM722.747 62.5485C722.747 63.3168 723.365 63.5451 723.852 62.9577C724.191 62.5513 724.116 62.3927 723.515 62.2368C723.025 62.1087 722.747 62.2201 722.747 62.5485ZM730.735 62.543C731 62.8631 731.119 63.2194 731.005 63.3363C730.713 63.6258 729.208 62.7852 729.208 62.3314C729.208 61.7608 730.201 61.9 730.735 62.543ZM301.46 63.7065C301.098 64.472 301.126 64.6251 301.624 64.6251C301.952 64.6251 302.111 64.5138 301.972 64.3746C301.835 64.2382 301.899 63.9097 302.116 63.6481C302.333 63.3864 302.372 63.0858 302.203 62.98C302.033 62.877 301.699 63.2027 301.46 63.7065ZM666.51 64.5862C666.51 65.0065 667.678 65.4825 667.976 65.1846C668.099 65.0622 667.946 64.8061 667.637 64.6112C666.927 64.1603 666.51 64.1519 666.51 64.5862ZM293.905 65.9446C293.26 67.4951 293.207 67.9683 293.741 67.431C294.17 67.0051 294.929 64.6251 294.64 64.6251C294.54 64.6251 294.209 65.2181 293.905 65.9446ZM292.461 69.4714C292.016 70.4819 291.877 71.6121 291.985 73.3546C292.108 75.2725 292.01 75.9072 291.546 76.2468C291.151 76.5363 291.048 76.9204 291.242 77.3992C291.807 78.8077 292.906 74.9663 293.129 70.802C293.299 67.6064 293.293 67.5925 292.461 69.4714ZM313.884 68.9871C313.619 69.3072 313.227 69.5661 313.01 69.5661C312.793 69.5661 312.929 69.2237 313.308 68.8034C314.092 67.9349 314.618 68.1019 313.884 68.9871ZM309.771 69.644C309.418 69.9975 309.315 69.8973 309.315 69.1875C309.315 68.4777 309.418 68.3775 309.771 68.731C310.127 69.0845 310.127 69.2877 309.771 69.644ZM300.575 69.7776C300.575 70.6016 299.492 72.6086 299.044 72.6086C298.558 72.6086 298.571 72.5056 299.287 70.7157C299.902 69.1764 300.575 68.6865 300.575 69.7776ZM305.472 72.2272C305.069 73.0651 304.571 73.7499 304.367 73.7499C303.814 73.7499 303.919 73.1458 304.565 72.6086C304.879 72.3469 305.135 71.8153 305.135 71.4228C305.135 71.0303 305.377 70.7074 305.67 70.7074C306.098 70.7074 306.059 71.0136 305.472 72.2272ZM675.628 71.0887C676.093 71.3866 676.043 71.459 675.367 71.4617C674.907 71.4645 674.429 71.2975 674.298 71.0887C674 70.6044 674.88 70.6044 675.628 71.0887ZM724.75 71.317C724.876 71.4423 724.82 71.9684 724.622 72.4833C724.419 73.0206 724.408 73.6914 724.597 74.0589C725.012 74.8661 724.77 75.5565 723.913 76.0158C723.312 76.3387 723.262 76.1967 723.392 74.585C723.654 71.3949 723.999 70.5654 724.75 71.317ZM678.455 72.0491C679.181 72.6002 679.181 72.6086 678.408 72.6086C677.977 72.6086 677.409 72.3525 677.15 72.038C676.507 71.2641 677.428 71.2725 678.455 72.0491ZM676.95 74.1118C677.078 74.3205 677.526 74.3456 677.996 74.1702C678.722 73.903 680.57 75.6595 680.57 76.617C680.57 77.1125 679.404 76.6922 679.073 76.077C678.864 75.6845 678.335 75.2697 677.899 75.1556C677.247 74.9858 677.186 75.0443 677.554 75.4897C677.904 75.9128 677.885 76.0297 677.462 76.0297C676.716 76.0297 676.009 75.253 676.009 74.4347C676.009 73.7026 676.577 73.5105 676.95 74.1118ZM309.315 76.0297C309.073 76.4834 308.789 76.7701 308.683 76.6643C308.58 76.5614 308.691 76.1048 308.936 75.6511C309.178 75.1946 309.462 74.9107 309.568 75.0137C309.671 75.1194 309.56 75.5759 309.315 76.0297ZM683.703 76.6226C683.08 77.299 683.099 77.6804 683.742 77.4354C684.023 77.3269 684.735 77.6525 685.322 78.1564C686.881 79.4953 686.997 78.9135 685.478 77.3992C684.399 76.3275 684.098 76.1939 683.703 76.6226ZM297.536 78.0367C297.536 78.3039 297.297 78.8634 297.002 79.281C296.39 80.1578 296.109 82.1008 296.501 82.7382C296.652 82.9776 296.504 83.6624 296.179 84.2581L295.583 85.3437L295.833 84.0939C296.003 83.2337 295.892 82.5489 295.472 81.9087C294.79 80.8676 294.999 79.2503 295.859 78.9191C296.153 78.8077 296.396 78.4514 296.396 78.1313C296.396 77.8112 296.652 77.5495 296.966 77.5495C297.28 77.5495 297.536 77.7695 297.536 78.0367ZM289.328 79.2782C289.194 79.8126 289.192 80.3527 289.32 80.4835C289.45 80.6115 289.556 80.3833 289.556 79.9713C289.556 79.5593 289.762 79.0165 290.012 78.766C290.358 78.4208 290.36 78.3095 290.018 78.3095C289.773 78.3095 289.462 78.7465 289.328 79.2782ZM735.794 79.9268C735.738 81.4132 735.775 81.48 736.278 80.7897C736.579 80.3805 736.734 79.8099 736.626 79.5259C736.517 79.242 736.428 78.8523 736.428 78.6602C736.428 77.4521 735.847 78.6157 735.794 79.9268ZM693.489 80.9706C693.489 81.1822 693.233 81.352 692.919 81.352C692.604 81.352 692.348 81.1822 692.348 80.9706C692.348 80.7619 692.604 80.5921 692.919 80.5921C693.233 80.5921 693.489 80.7619 693.489 80.9706ZM292.216 83.9881C292.216 84.7647 291.331 85.661 290.945 85.2769C290.55 84.8816 290.655 83.8266 291.137 83.3451C291.696 82.7828 292.216 83.0945 292.216 83.9881ZM293.925 84.7731C293.783 85.2268 293.858 85.533 294.111 85.533C294.348 85.533 294.423 85.7223 294.281 85.9533C294.111 86.2289 293.769 86.1148 293.262 85.6109C292.464 84.8093 292.628 84.0131 293.594 84.0131C293.994 84.0131 294.094 84.2414 293.925 84.7731ZM701.898 85.4161C701.542 85.8002 701.503 86.1009 701.77 86.3681C702.245 86.8441 702.988 86.4488 702.988 85.7223C702.988 84.929 702.482 84.7842 701.898 85.4161ZM712.869 87.6235C712.607 87.9381 712.137 88.1942 711.826 88.1942C711.361 88.1942 711.344 88.0884 711.728 87.6235C711.987 87.3117 712.457 87.0529 712.772 87.0529C713.233 87.0529 713.253 87.1614 712.869 87.6235ZM292.428 88.84C292.252 89.302 292.08 89.3521 291.763 89.0348C291.445 88.7175 291.471 88.4447 291.857 87.9798C292.447 87.2672 292.817 87.8267 292.428 88.84ZM733.576 90.0982C732.82 90.9332 732.405 90.8442 732.758 89.9228C732.884 89.5999 733.273 89.3354 733.624 89.3354C734.211 89.3354 734.205 89.4022 733.576 90.0982ZM288.037 91.2589C288.037 91.6876 288.207 91.9353 288.415 91.8073C288.624 91.6765 288.797 91.3257 288.797 91.0223C288.797 90.7217 288.624 90.4767 288.415 90.4767C288.207 90.4767 288.037 90.8275 288.037 91.2589ZM283.577 92.6619C283.304 93.4218 283.279 93.8978 283.507 93.8978C284 93.8978 284.336 92.9736 284.158 92.1135C284.055 91.6097 283.899 91.7544 283.577 92.6619ZM734.066 95.607C733.933 96.0245 733.721 96.9654 733.593 97.6975L733.365 99.028L733.96 97.7114C734.292 96.9876 734.503 96.0468 734.433 95.6209C734.311 94.8526 734.308 94.8526 734.066 95.607ZM287.275 95.735C287.275 96.2305 286.824 96.559 286.456 96.3307C286.064 96.0885 286.404 95.4177 286.918 95.4177C287.116 95.4177 287.275 95.5596 287.275 95.735ZM285.288 98.9111C285.207 99.1589 284.934 99.4289 284.687 99.5124C284.409 99.6043 284.325 99.4317 284.467 99.0615C284.731 98.3683 285.516 98.2264 285.288 98.9111ZM294.876 103.212C294.876 103.524 294.704 103.78 294.495 103.78C294.286 103.78 294.117 103.524 294.117 103.212C294.117 102.897 294.286 102.641 294.495 102.641C294.704 102.641 294.876 102.897 294.876 103.212ZM272.077 106.201C272.077 106.519 272.263 106.892 272.491 107.034C272.719 107.176 272.831 107.699 272.733 108.197C272.639 108.696 272.708 109.102 272.889 109.102C273.443 109.102 273.251 106.803 272.647 106.199C272.141 105.689 272.077 105.692 272.077 106.201ZM733.003 109.553C733.014 110.778 732.232 112.353 731.887 111.797C731.715 111.515 731.384 111.404 731.15 111.549C730.41 112.005 730.683 110.235 731.54 109.032C732.374 107.858 732.989 108.078 733.003 109.553ZM258.865 110.243C258.865 110.975 258.943 111.273 259.038 110.909C259.135 110.544 259.135 109.943 259.038 109.578C258.943 109.213 258.865 109.511 258.865 110.243ZM277.235 110.491C277.024 111.042 276.912 111.073 276.651 110.647C276.217 109.943 276.606 108.921 277.116 109.43C277.327 109.642 277.38 110.118 277.235 110.491ZM281.807 110.085C281.679 110.416 281.576 110.842 281.576 111.034C281.576 111.226 281.428 111.385 281.248 111.385C281.07 111.385 281.003 110.956 281.103 110.433C281.203 109.909 281.454 109.483 281.659 109.483C281.868 109.483 281.932 109.753 281.807 110.085ZM288.797 111.574C288.797 111.888 288.624 112.145 288.415 112.145C288.207 112.145 288.037 111.888 288.037 111.574C288.037 111.259 288.207 111.003 288.415 111.003C288.624 111.003 288.797 111.259 288.797 111.574ZM733.051 113.773C732.739 114.085 732.628 114.043 732.628 113.614C732.628 112.857 733.14 112.348 733.329 112.913C733.407 113.155 733.284 113.542 733.051 113.773ZM256.244 115.02C256.119 115.348 256.208 115.811 256.444 116.047C256.767 116.367 256.876 116.217 256.876 115.451C256.876 114.307 256.592 114.113 256.244 115.02ZM267.285 115.026C267.413 115.357 267.516 115.699 267.516 115.786C267.516 115.875 267.672 115.944 267.861 115.944C268.05 115.944 268.114 115.605 268.006 115.184C267.897 114.767 267.638 114.424 267.43 114.424C267.224 114.424 267.16 114.694 267.285 115.026ZM276.609 117.18C276.623 117.339 276.465 117.467 276.256 117.467C276.047 117.467 275.889 116.996 275.902 116.42C275.927 115.446 276.503 116.067 276.609 117.18ZM267.143 117.751C267.138 118.221 267.307 118.605 267.516 118.605C267.992 118.605 267.992 118.202 267.516 117.467C267.218 117.005 267.146 117.06 267.143 117.751ZM268.317 118.511C268.476 120.977 268.303 122.026 267.739 122.026C267.246 122.026 266.514 119.58 266.628 118.321C266.653 118.06 266.5 117.845 266.292 117.845C265.885 117.845 266.13 119.8 266.804 121.932C267.266 123.388 267.675 123.482 268.431 122.313C269.275 121.013 269.422 117.085 268.632 117.085C268.398 117.085 268.264 117.698 268.317 118.511ZM282.486 117.687C282.611 118.018 282.717 118.689 282.717 119.176C282.717 119.663 282.917 120.131 283.162 120.211C283.418 120.298 283.482 120.568 283.315 120.841C282.764 121.734 281.576 120.17 281.576 118.547C281.576 117.06 282.066 116.596 282.486 117.687ZM276.957 121.815C277.029 122.185 276.915 122.661 276.707 122.87C276.247 123.329 275.332 121.84 275.702 121.239C276.05 120.676 276.804 121.022 276.957 121.815ZM744.503 121.138C743.977 121.35 743.849 122.026 744.334 122.026C744.503 122.026 744.974 121.776 745.38 121.47C746.131 120.902 745.591 120.699 744.503 121.138ZM282.336 122.177C282.336 122.469 282.099 122.797 281.81 122.909C281.44 123.051 281.339 122.892 281.473 122.38C281.693 121.536 282.336 121.386 282.336 122.177ZM263.487 129.854C263.612 130.185 263.576 130.709 263.403 131.018C262.981 131.772 262.004 130.684 262.332 129.826C262.619 129.077 263.195 129.091 263.487 129.854ZM268.287 131.324C268.278 132.139 268.39 132.331 268.696 132.025C268.996 131.725 268.999 131.407 268.707 130.903C268.351 130.288 268.298 130.338 268.287 131.324ZM265.997 132.827C265.997 132.969 266.345 133.459 266.773 133.918C268.031 135.271 268.657 136.76 268.145 137.186C267.538 137.687 265.616 135.986 265.616 134.948C265.616 134.508 265.446 134.252 265.24 134.38C264.736 134.692 263.545 132.142 263.838 131.382C264.063 130.795 265.997 132.089 265.997 132.827ZM262.725 132.894C263.142 133.977 262.944 134.397 262.374 133.645C262.068 133.239 261.817 132.768 261.817 132.599C261.817 132.056 262.488 132.273 262.725 132.894ZM280.062 138.28C280.065 138.789 280.143 138.826 280.388 138.436C280.633 138.052 280.761 138.124 280.922 138.737C281.1 139.424 281.011 139.508 280.31 139.288C279.022 138.887 278.396 137.615 279.486 137.615C279.801 137.615 280.06 137.913 280.062 138.28ZM273.596 138.564C273.596 138.879 273.426 139.135 273.217 139.135C273.006 139.135 272.836 138.879 272.836 138.564C272.836 138.249 273.006 137.993 273.217 137.993C273.426 137.993 273.596 138.249 273.596 138.564ZM272.906 140.56C272.992 141.311 273.24 141.606 273.785 141.606C274.3 141.606 274.508 141.389 274.433 140.941C274.308 140.187 274.926 140.042 275.349 140.724C275.502 140.972 275.677 141.612 275.738 142.149C275.799 142.687 275.944 143.764 276.061 144.543C276.325 146.316 275.307 146.188 274.915 144.398C274.776 143.775 274.38 143.165 274.035 143.043C272.833 142.62 272.077 141.671 272.077 140.596C272.077 139.21 272.747 139.182 272.906 140.56ZM265.616 142.915C265.616 143.363 264.875 143.842 264.603 143.569C264.33 143.296 264.811 142.556 265.259 142.556C265.454 142.556 265.616 142.717 265.616 142.915ZM268.259 144.042C268.473 144.443 268.593 145.643 268.529 146.712C268.448 148.051 268.579 148.797 268.952 149.106C269.828 149.835 270.254 151.319 269.759 151.914C269.43 152.31 269.436 152.577 269.787 152.997C270.04 153.303 270.173 153.774 270.084 154.044C269.987 154.325 269.664 154.041 269.313 153.362C268.98 152.719 268.437 151.973 268.111 151.7C267.405 151.113 267.31 150.375 267.992 150.767C268.267 150.926 268.334 150.895 268.15 150.695C267.975 150.506 267.655 150.35 267.435 150.35C267.218 150.35 266.781 149.96 266.467 149.487C265.955 148.716 265.955 148.646 266.467 148.841C267.165 149.111 267.624 147.268 267.101 146.291C266.912 145.938 266.756 145.122 266.756 144.482C266.756 143.14 267.638 142.884 268.259 144.042ZM741.762 146.976C742.327 148.685 742.055 149.303 740.733 149.309C738.643 149.32 737.925 147.302 739.55 145.988C740.647 145.1 741.231 145.362 741.762 146.976ZM270.176 146.737C270.176 147.154 270.346 147.497 270.557 147.497C270.766 147.497 270.936 147.694 270.936 147.936C270.936 148.187 270.607 148.078 270.176 147.689C269.375 146.962 269.155 145.977 269.795 145.977C270.006 145.977 270.176 146.319 270.176 146.737ZM272.778 149.03C272.892 149.818 272.833 149.868 272.302 149.428C271.587 148.833 271.487 147.744 272.171 147.97C272.433 148.056 272.705 148.532 272.778 149.03ZM265.988 150.258C265.991 150.417 266.606 151.416 267.355 152.479C268.131 153.584 268.615 154.659 268.49 154.987C268.2 155.742 267.135 154.943 267.135 153.971C267.135 153.612 266.754 152.992 266.289 152.593C265.574 151.984 265.521 151.976 265.961 152.543C266.25 152.914 266.361 153.342 266.208 153.493C265.838 153.863 264.856 152.474 264.856 151.583C264.856 151.191 264.686 150.55 264.478 150.161C263.799 148.894 264.461 147.995 265.287 149.067C265.668 149.562 265.983 150.099 265.988 150.258ZM271.197 149.996C271.506 150.662 271.517 150.923 271.233 150.829C270.758 150.67 270.062 149.017 270.474 149.022C270.624 149.022 270.95 149.462 271.197 149.996ZM281.576 149.671C281.576 149.938 281.426 150.158 281.242 150.158C281.058 150.158 280.727 149.938 280.505 149.671C280.196 149.3 280.277 149.181 280.836 149.181C281.242 149.181 281.576 149.401 281.576 149.671ZM274.968 151.895C274.859 152.182 274.931 152.516 275.132 152.641C275.332 152.763 275.496 153.223 275.496 153.66C275.496 154.436 275.477 154.436 274.723 153.565C274.297 153.075 274.041 152.438 274.152 152.145C274.264 151.856 274.355 151.449 274.355 151.246C274.355 151.04 274.539 150.987 274.762 151.124C274.984 151.263 275.079 151.611 274.968 151.895ZM742.133 152.724C742.149 153.557 742.876 154.111 742.881 153.295C742.884 152.825 742.717 152.44 742.508 152.44C742.3 152.44 742.13 152.568 742.133 152.724ZM265.04 155.48C265.357 155.48 265.616 155.552 265.616 155.639C265.616 155.728 265.721 156.07 265.846 156.399C266.011 156.827 265.852 157.003 265.304 157.003C264.305 157.003 262.955 155.28 262.958 154.005C262.958 153.014 262.961 153.014 263.712 154.244C264.127 154.926 264.725 155.48 265.04 155.48ZM743.268 155.032C743.268 155.419 744.829 155.945 745.118 155.655C745.36 155.413 745.121 155.238 744.122 154.932C743.652 154.787 743.268 154.832 743.268 155.032ZM268.657 156.432C269.044 156.897 269.019 157.003 268.512 157.003C268.173 157.003 267.897 156.744 267.897 156.432C267.897 156.118 267.961 155.861 268.039 155.861C268.12 155.861 268.395 156.118 268.657 156.432ZM746.877 156.53C747.506 156.933 748.079 157.111 748.151 156.919C748.338 156.443 748.187 156.34 746.877 156.048L745.739 155.792L746.877 156.53ZM272.455 157.952C272.719 158.269 272.761 158.523 272.55 158.523C272.341 158.523 271.957 158.267 271.695 157.952C271.431 157.635 271.392 157.381 271.603 157.381C271.812 157.381 272.196 157.637 272.455 157.952ZM268.465 160.975C269.43 161.757 269.478 161.869 268.776 161.696C267.928 161.482 266.358 160.04 266.982 160.045C267.171 160.045 267.839 160.463 268.465 160.975ZM739.339 166.336C739.464 166.662 739.798 166.84 740.082 166.732C740.363 166.623 740.769 166.857 740.981 167.255C741.498 168.221 741.47 168.405 740.797 168.405C740.355 168.405 740.396 168.574 740.986 169.167C741.406 169.585 741.749 170.108 741.749 170.331C741.749 170.893 739.754 170.609 739.559 170.022C739.461 169.718 739.626 169.629 740.007 169.777C740.338 169.905 740.608 169.819 740.608 169.588C740.608 169.357 740.179 169.167 739.659 169.167C738.952 169.167 738.707 168.964 738.707 168.382C738.707 167.954 738.538 167.706 738.329 167.837C737.909 168.096 737.792 166.406 738.201 165.999C738.627 165.574 739.1 165.713 739.339 166.336ZM273.12 173.284C273.763 174.08 273.721 174.512 273.025 174.245C272.714 174.125 272.455 173.788 272.455 173.496C272.455 173.206 272.104 172.967 271.673 172.967C271.245 172.967 270.991 172.803 271.117 172.605C271.4 172.143 272.502 172.516 273.12 173.284ZM734.906 177.741C734.906 179.055 734.764 179.767 734.528 179.62C734.311 179.486 734.147 179.806 734.147 180.357C734.147 181.66 733.098 181.638 732.769 180.327C732.575 179.55 732.711 179.18 733.376 178.679C734.077 178.147 734.186 177.813 733.972 176.831C733.763 175.879 733.832 175.628 734.308 175.628C734.781 175.628 734.906 176.071 734.906 177.741ZM736.807 177.318C736.807 177.827 736.979 178.35 737.188 178.478C737.411 178.618 737.566 178.231 737.566 177.552C737.566 176.911 737.397 176.388 737.188 176.388C736.979 176.388 736.807 176.806 736.807 177.318ZM749.726 177.529C749.951 177.947 750.324 178.289 750.561 178.289C750.795 178.289 750.675 177.947 750.296 177.529C749.918 177.112 749.545 176.769 749.464 176.769C749.387 176.769 749.503 177.112 749.726 177.529ZM268.276 177.468C268.276 177.643 268.704 177.983 269.227 178.22C270.324 178.721 270.482 178.417 269.511 177.68C268.74 177.092 268.276 177.014 268.276 177.468ZM738.232 178.888C738.076 179.046 737.948 179.611 737.948 180.14C737.948 180.831 738.065 180.987 738.36 180.691C738.588 180.463 738.716 179.901 738.646 179.439C738.574 178.977 738.39 178.729 738.232 178.888ZM731.495 180.945C730.788 181.385 730.566 181.162 730.883 180.332C731.078 179.826 731.234 179.784 731.592 180.143C731.951 180.502 731.929 180.678 731.495 180.945ZM731.245 182.662C731.125 182.974 730.875 183.233 730.688 183.233C730.502 183.233 730.349 182.974 730.349 182.662C730.349 182.348 730.599 182.092 730.905 182.092C731.245 182.092 731.378 182.314 731.245 182.662ZM735.402 182.971C735.251 183.219 735.121 183.748 735.112 184.149C735.104 184.55 734.856 184.956 734.561 185.056C734.197 185.179 734.102 185.042 734.261 184.628C734.389 184.291 734.33 183.915 734.13 183.792C733.532 183.422 733.721 182.537 734.433 182.376C735.327 182.172 735.741 182.426 735.402 182.971ZM736.428 183.611C736.428 184.238 736.287 184.753 736.114 184.753C735.942 184.753 735.875 184.238 735.967 183.611C736.058 182.985 736.2 182.47 736.281 182.47C736.362 182.47 736.428 182.985 736.428 183.611ZM738.329 183.823C738.329 184.36 738.173 184.7 737.984 184.583C737.795 184.466 737.728 184.029 737.836 183.611C738.112 182.565 738.329 182.659 738.329 183.823ZM272.836 184.371C272.836 184.789 272.664 185.131 272.455 185.131C272.246 185.131 272.077 185.062 272.077 184.973C272.077 184.886 271.974 184.544 271.846 184.213C271.695 183.817 271.823 183.611 272.224 183.611C272.583 183.611 272.836 183.926 272.836 184.371ZM733.151 184.828C732.669 185.607 731.843 185.129 732.274 184.321C732.611 183.692 732.781 183.625 733.023 184.018C733.195 184.296 733.254 184.661 733.151 184.828ZM730.516 185.226C730.198 186.264 730.346 186.128 729.208 186.434C728.343 186.671 728.317 186.646 728.924 186.156C729.289 185.861 729.589 185.337 729.589 184.995C729.589 184.653 729.856 184.371 730.185 184.371C730.627 184.371 730.71 184.591 730.516 185.226ZM274.737 185.535C274.737 185.733 274.481 185.891 274.166 185.891C273.579 185.891 273.412 185.443 273.838 185.017C274.144 184.711 274.737 185.056 274.737 185.535ZM280.199 189.059C280.599 190.596 279.698 190.139 278.635 188.263C278.187 187.475 278.209 187.453 279.077 187.848C279.581 188.079 280.085 188.622 280.199 189.059ZM274.545 193.875C274.28 194.306 274.62 195.016 275.093 195.016C275.265 195.016 275.496 194.674 275.605 194.256C275.813 193.46 274.987 193.162 274.545 193.875ZM284.996 194.445C284.996 194.76 284.923 195.016 284.837 195.016C284.751 195.016 284.42 195.116 284.105 195.236C283.674 195.4 283.582 195.258 283.738 194.665C283.974 193.763 284.996 193.585 284.996 194.445ZM726.737 194.07C725.869 194.37 723.576 194.454 723.746 194.175C723.849 194.011 724.65 193.889 725.527 193.905C726.4 193.922 726.946 193.994 726.737 194.07ZM287.275 195.166C287.275 195.834 286.125 196.299 285.65 195.823C285.452 195.626 285.405 195.278 285.547 195.049C285.917 194.451 287.275 194.543 287.275 195.166ZM717.972 196.494C718.259 196.956 717.176 197.8 716.684 197.496C716.01 197.081 716.247 196.157 717.026 196.157C717.432 196.157 717.858 196.308 717.972 196.494ZM718.882 198.184C718.963 198.612 718.746 198.818 718.217 198.818C717.783 198.818 717.427 198.59 717.427 198.312C717.427 197.145 718.659 197.04 718.882 198.184ZM286.515 198.217C286.515 198.824 285.967 199.578 285.524 199.578C284.929 199.578 284.904 199.503 285.227 198.66C285.424 198.142 286.515 197.766 286.515 198.217ZM718.568 200.188C718.568 200.956 717.939 201.143 717.424 200.525C717.165 200.213 716.712 199.957 716.417 199.957C715.977 199.957 715.969 199.862 716.364 199.436C716.937 198.824 718.568 199.381 718.568 200.188ZM714.767 201.098C714.767 202.287 714.55 202.448 713.682 201.9C713.033 201.488 713.459 199.957 714.224 199.957C714.575 199.957 714.767 200.363 714.767 201.098ZM284.996 201.883C284.996 202.535 284.242 203.759 283.844 203.759C283.429 203.759 283.337 202.123 283.73 201.733C284.128 201.332 284.996 201.438 284.996 201.883ZM718.595 210.114C717.541 210.557 717.129 210.571 716.411 210.187C715.204 209.538 714.761 210.126 715.813 210.98C716.283 211.362 716.667 211.876 716.667 212.121C716.667 212.366 716.881 212.492 717.143 212.4C717.405 212.305 717.594 211.949 717.566 211.606C717.502 210.866 718.573 210.774 719.308 211.456C719.72 211.84 719.764 211.835 719.541 211.442C719.388 211.169 719.472 210.696 719.731 210.387C720.404 209.574 720.076 209.496 718.595 210.114ZM286.554 211.253C286.189 211.879 286.159 211.871 286.148 211.142C286.134 210.262 286.618 209.574 286.821 210.184C286.891 210.398 286.771 210.88 286.554 211.253ZM289.175 211.506C289.175 211.793 288.919 212.244 288.605 212.503C288.001 213.004 287.864 212.634 288.265 211.584C288.549 210.844 289.175 210.791 289.175 211.506ZM710.587 213.073C710.587 213.388 710.426 213.644 710.231 213.644C709.753 213.644 709.408 213.048 709.711 212.745C710.139 212.319 710.587 212.486 710.587 213.073ZM288.054 216.135C288.457 216.623 288.452 216.706 288.023 216.611C287.736 216.547 287.494 216.751 287.483 217.065C287.475 217.377 287.294 217.678 287.085 217.73C286.66 217.836 286.66 217.636 287.077 216.4C287.419 215.381 287.428 215.381 288.054 216.135ZM282.336 217.753C282.336 218.131 282.085 218.772 281.779 219.178C281.153 220.005 280.917 218.991 281.426 217.666C281.74 216.848 282.336 216.904 282.336 217.753ZM287.383 219.44C287.595 220.03 286.999 221.246 286.501 221.246C286.301 221.246 286.136 220.734 286.136 220.105C286.136 218.952 287.035 218.474 287.383 219.44ZM289.935 220.673C289.935 220.804 289.765 220.806 289.556 220.676C289.342 220.545 289.175 220.851 289.175 221.383C289.175 221.9 289.359 222.385 289.584 222.46C289.812 222.535 289.642 222.916 289.206 223.312L288.415 224.024V221.939C288.415 220.792 288.521 219.746 288.652 219.618C288.891 219.378 289.935 220.236 289.935 220.673ZM278.746 221.33C278.173 222.154 277.884 224.687 278.429 224.141C278.704 223.866 279.648 220.486 279.447 220.486C279.389 220.486 279.072 220.868 278.746 221.33ZM284.742 225.402C284.662 227.434 284.762 228.896 284.99 229.038C285.488 229.344 285.491 230.371 284.996 230.371C284.787 230.371 284.614 230.029 284.614 229.608C284.614 229.191 284.445 228.848 284.236 228.848C283.816 228.848 283.718 225.063 284.094 223.195C284.548 220.918 284.876 222.031 284.742 225.402ZM721.873 222.755C721.982 223.167 722.304 223.696 722.588 223.932C722.981 224.258 722.964 224.077 722.519 223.186C721.848 221.839 721.589 221.667 721.873 222.755ZM288.162 224.408C288.733 225.469 288.766 225.836 288.376 226.694C288.006 227.504 288.009 227.899 288.388 228.609C288.724 229.232 288.799 230.513 288.644 232.882C288.521 234.741 288.426 236.99 288.435 237.878C288.443 238.766 288.285 239.493 288.084 239.493C287.695 239.493 287.077 237.283 287.383 236.979C287.48 236.882 287.327 235.579 287.044 234.087C286.76 232.592 286.61 231.29 286.712 231.187C286.815 231.084 286.621 230.577 286.284 230.062C285.613 229.038 285.772 226.134 286.548 225.199C286.776 224.923 286.852 224.523 286.715 224.305C286.454 223.88 286.765 223.147 287.211 223.147C287.361 223.147 287.789 223.715 288.162 224.408ZM281.384 228.581C281.067 229.795 281.381 230.338 282.027 229.692C282.341 229.377 282.352 229.013 282.063 228.386L281.662 227.518L281.384 228.581ZM291.799 233.697C292.166 234.404 292.141 234.552 291.66 234.552C291.281 234.552 291.075 234.196 291.075 233.539C291.075 232.422 291.142 232.439 291.799 233.697ZM711.728 245.915C711.728 247.251 711.041 246.463 710.757 244.804C710.546 243.557 710.565 243.526 711.13 244.222C711.458 244.629 711.728 245.389 711.728 245.915ZM296.014 287.163C296.014 288.12 295.035 288.811 294.771 288.037C294.598 287.527 295.283 286.252 295.728 286.252C295.886 286.252 296.014 286.662 296.014 287.163ZM295.558 292.212C295.374 293.089 294.695 292.978 294.565 292.051C294.473 291.397 294.587 291.252 295.057 291.433C295.397 291.564 295.622 291.914 295.558 292.212Z" fill="#E0E0E0"/>
</g>
<defs>
<clipPath id="clip0">
<rect width="1113" height="1080" fill="white"/>
</clipPath>
</defs>
</svg>
